<?xml version="1.0" encoding="utf-8"?>
<!-- Generator: Adobe Illustrator 15.0.0, SVG Export Plug-In  -->
<!DOCTYPE svg PUBLIC "-//W3C//DTD SVG 1.1//EN" "http://www.w3.org/Graphics/SVG/1.1/DTD/svg11.dtd" [
	<!ENTITY ns_flows "http://ns.adobe.com/Flows/1.0/">
]>
<svg version="1.1"
	 xmlns="http://www.w3.org/2000/svg" xmlns:xlink="http://www.w3.org/1999/xlink" xmlns:a="http://ns.adobe.com/AdobeSVGViewerExtensions/3.0/"
	 x="0px" y="0px" width="115px" height="45px" viewBox="-2.71 -1.9 115 45"
	 overflow="visible" enable-background="new -2.71 -1.9 115 45" xml:space="preserve">
<defs>
</defs>
<path d="M10,17.84c-6.622,0-10,5.002-10,5.667c0,0.668,3.393,5.668,10,5.668s10-5,10-5.668C20,22.842,16.622,17.84,10,17.84z
	 M10,27.651c-2.289,0-4.145-1.855-4.145-4.145S7.711,19.361,10,19.361s4.145,1.856,4.145,4.145S12.289,27.651,10,27.651z"/>
<path d="M10,0C3.378,0,0,5.002,0,5.667c0,0.669,3.394,5.667,10,5.667s10-4.998,10-5.667C20,5.002,16.622,0,10,0z M10,9.811
	c-2.289,0-4.145-1.855-4.145-4.144S7.711,1.522,10,1.522c2.288,0,4.145,1.855,4.145,4.145S12.288,9.811,10,9.811z"/>
<circle cx="10" cy="5.667" r="2.507"/>
</svg>
