<?xml version="1.0" encoding="utf-8"?>
<!-- Generator: Adobe Illustrator 15.0.0, SVG Export Plug-In . SVG Version: 6.00 Build 0)  -->
<!DOCTYPE svg PUBLIC "-//W3C//DTD SVG 1.1//EN" "http://www.w3.org/Graphics/SVG/1.1/DTD/svg11.dtd">
<svg version="1.1" id="Ebene_1" xmlns="http://www.w3.org/2000/svg" xmlns:xlink="http://www.w3.org/1999/xlink" x="0px" y="0px"
	 width="200px" height="40px" viewBox="-24.5 145.5 200 40" enable-background="new -24.5 145.5 200 40" xml:space="preserve">
<g>
	<path id="Hidden" d="M5.5,149.467c-6.622,0-10,5.002-10,5.668c0,0.668,3.393,5.664,10,5.664s10-4.996,10-5.664
		C15.5,154.469,12.122,149.467,5.5,149.467z M5.5,159.274c-2.289,0-4.145-1.853-4.145-4.142s1.856-4.146,4.145-4.146
		s4.145,1.855,4.145,4.146C9.645,157.422,7.789,159.274,5.5,159.274z"/>
</g>
<g id="Visible">
	<path d="M-14.498,149.467c-6.624,0-10.002,5.003-10.002,5.668c0,0.669,3.395,5.664,10.002,5.664s10.001-4.995,10.001-5.664
		C-4.497,154.47-7.875,149.467-14.498,149.467z M-14.498,159.276c-2.29,0-4.146-1.853-4.146-4.142c0-2.29,1.856-4.146,4.146-4.146
		c2.288,0,4.146,1.856,4.146,4.146C-10.352,157.424-12.21,159.276-14.498,159.276z"/>
	<circle cx="-14.498" cy="155.134" r="2.506"/>
</g>
<rect x="18.5" y="153.5" width="8" height="2"/>
<polygon points="26.5,159.5 31.5,154.508 26.5,149.5 "/>
<g>
	<path d="M46,146.635c-4.695,0-8.5,3.806-8.5,8.5c0,4.691,3.805,8.493,8.5,8.493s8.5-3.802,8.5-8.493
		C54.5,150.44,50.695,146.635,46,146.635z M45.739,160.998c-0.689,0-1.243-0.59-1.243-1.293c0-0.705,0.554-1.243,1.26-1.243
		c0.672,0,1.261,0.538,1.261,1.243C47.017,160.408,46.445,160.998,45.739,160.998z M47.42,154.529
		c-1.093,0.738-1.227,1.746-1.076,2.789h-1.58c-0.37-1.58,0.034-2.638,1.176-3.528c0.538-0.454,1.261-0.756,1.261-1.63
		c0-0.857-0.656-1.295-1.462-1.295c-0.773,0-1.496,0.369-1.983,0.757l-0.807-1.194c0.555-0.502,1.681-1.159,3.16-1.159
		c1.614,0,2.941,1.009,2.941,2.673C49.051,153.504,47.907,154.208,47.42,154.529z"/>
</g>
<rect x="63.5" y="147.5" width="3" height="15"/>
<rect x="57.5" y="153.5" width="15" height="3"/>
</svg>
