<?xml version="1.0" encoding="utf-8"?>
<!-- Generator: Adobe Illustrator 15.0.0, SVG Export Plug-In . SVG Version: 6.00 Build 0)  -->
<!DOCTYPE svg PUBLIC "-//W3C//DTD SVG 1.1//EN" "http://www.w3.org/Graphics/SVG/1.1/DTD/svg11.dtd">
<svg version="1.1" id="Ebene_1" xmlns="http://www.w3.org/2000/svg" xmlns:xlink="http://www.w3.org/1999/xlink" x="0px" y="0px"
	 width="200px" height="40px" viewBox="-542 603 200 40" enable-background="new -542 603 200 40" xml:space="preserve">
<g>
	<path id="Hidden" d="M-512,607.332c-6.622,0-10,5.002-10,5.668c0,0.668,3.393,5.668,10,5.668s10-5,10-5.668
		C-502,612.334-505.378,607.332-512,607.332z M-512,617.143c-2.289,0-4.145-1.854-4.145-4.145c0-2.289,1.856-4.145,4.145-4.145
		s4.145,1.855,4.145,4.145S-509.711,617.143-512,617.143z"/>
</g>
<g id="Visible">
	<path d="M-531.998,607.332c-6.624,0-10.002,5.003-10.002,5.668c0,0.669,3.395,5.668,10.002,5.668
		c6.607,0,10.001-4.999,10.001-5.668C-521.997,612.335-525.375,607.332-531.998,607.332z M-531.998,617.145
		c-2.29,0-4.146-1.855-4.146-4.145s1.856-4.146,4.146-4.146c2.288,0,4.146,1.856,4.146,4.146S-529.71,617.145-531.998,617.145z"/>
	<circle cx="-531.998" cy="613" r="2.507"/>
</g>
<rect x="-499" y="612" width="8" height="2"/>
<polygon points="-491,618 -486,613.004 -491,608 "/>
</svg>
