<?xml version="1.0" encoding="utf-8"?>
<!-- Generator: Adobe Illustrator 15.0.0, SVG Export Plug-In . SVG Version: 6.00 Build 0)  -->
<!DOCTYPE svg PUBLIC "-//W3C//DTD SVG 1.1//EN" "http://www.w3.org/Graphics/SVG/1.1/DTD/svg11.dtd">
<svg version="1.1" id="Ebene_1" xmlns="http://www.w3.org/2000/svg" xmlns:xlink="http://www.w3.org/1999/xlink" x="0px" y="0px"
	 width="800px" height="160px" viewBox="-24.5 145.5 800 160" enable-background="new -24.5 145.5 800 160" xml:space="preserve">
<g>
	<path id="Hidden" d="M222.923,169.992c-54.615,0-82.475,41.253-82.475,46.745c0,5.509,27.983,46.715,82.475,46.715
		c54.489,0,82.475-41.206,82.475-46.715C305.397,211.245,277.537,169.992,222.923,169.992z M222.923,250.879
		c-18.88,0-34.187-15.278-34.187-34.156c0-18.88,15.307-34.19,34.187-34.19c18.879,0,34.186,15.302,34.186,34.19
		C257.108,235.601,241.802,250.879,222.923,250.879z"/>
</g>
<g id="Visible">
	<path d="M57.99,169.992c-54.631,0-82.49,41.262-82.49,46.745c0,5.518,28,46.715,82.49,46.715s82.482-41.197,82.482-46.715
		C140.473,211.254,112.613,169.992,57.99,169.992z M57.99,250.896c-18.887,0-34.193-15.278-34.193-34.158
		c0-18.887,15.307-34.196,34.193-34.196c18.871,0,34.194,15.31,34.194,34.196C92.185,235.617,76.861,250.896,57.99,250.896z"/>
	<path d="M57.99,196.063c11.42,0,20.675,9.253,20.675,20.674s-9.254,20.667-20.675,20.667s-20.675-9.246-20.675-20.667
		S46.57,196.063,57.99,196.063z"/>
</g>
<rect x="330.14" y="203.255" width="65.979" height="16.496"/>
<polygon points="396.119,252.74 437.355,211.566 396.119,170.266 "/>
<g>
	<path d="M556.943,146.635c-38.72,0-70.103,31.387-70.103,70.103c0,38.692,31.383,70.048,70.103,70.048
		c38.721,0,70.103-31.355,70.103-70.048C627.046,178.021,595.664,146.635,556.943,146.635z M554.793,265.095
		c-5.686,0-10.253-4.864-10.253-10.664c0-5.815,4.567-10.253,10.39-10.253c5.542,0,10.402,4.438,10.402,10.253
		C565.332,260.23,560.611,265.095,554.793,265.095z M568.653,211.745c-9.012,6.088-10.119,14.4-8.875,23.001H546.75
		c-3.052-13.031,0.278-21.753,9.698-29.1c4.438-3.744,10.401-6.233,10.401-13.441c0-7.071-5.412-10.681-12.057-10.681
		c-6.379,0-12.339,3.045-16.358,6.243l-6.653-9.852c4.576-4.139,13.861-9.56,26.06-9.56c13.314,0,24.256,8.32,24.256,22.045
		C582.104,203.288,572.673,209.095,568.653,211.745z"/>
</g>
<rect x="701.272" y="153.771" width="24.742" height="123.711"/>
<rect x="651.789" y="203.255" width="123.711" height="24.743"/>
</svg>
