<?xml version="1.0" encoding="utf-8"?>
<!-- Generator: Adobe Illustrator 17.0.0, SVG Export Plug-In . SVG Version: 6.00 Build 0)  -->
<!DOCTYPE svg PUBLIC "-//W3C//DTD SVG 1.1//EN" "http://www.w3.org/Graphics/SVG/1.1/DTD/svg11.dtd">
<svg version="1.1" id="formandsystem-font" xmlns="http://www.w3.org/2000/svg" xmlns:xlink="http://www.w3.org/1999/xlink" x="0px"
	 y="0px" width="1823.999px" height="679.182px" viewBox="0 0 1823.999 679.182" enable-background="new 0 0 1823.999 679.182"
	 xml:space="preserve">
<path id="_x26_" fill="#FEE01A" d="M473.106,514.407l-0.19-0.235c20.439-26.703,36.376-52.154,45.527-74.302
	c16.857-40.045,26.303-79.652,28.345-118.823H436.197c-0.301,19.814-3.327,38.611-9.077,56.383
	c-5.423,16.756-14.543,34.791-24.47,49.494l-0.091-0.113l-92.294-112.439c34.924-20.121,61.432-41.987,79.508-65.6
	c18.127-23.673,27.19-54.511,27.19-92.513c0-42.094-15.115-76.661-45.344-103.702c-30.23-27.034-68.492-40.556-114.793-40.556
	c-50.727,0-92.015,13.209-123.864,39.614c-31.856,26.413-47.777,63.11-47.777,110.087c0,23.639,5.096,46.404,15.3,68.286
	c10.197,21.885,24.622,43.331,43.275,64.34l-13.551,8.306c-43.713,27.109-75.186,54.504-94.419,82.193
	c-19.234,27.689-28.85,60.917-28.85,99.678l0.383-0.012l-0.381,0.012c0,46.929,18.557,89.631,55.672,128.098
	c37.115,38.474,88.661,57.707,154.646,57.707c43.89,0,81.772-10.412,116.208-25.927c18.006-8.113,51.242-28.194,64.654-40.333
	l41.136,50.087h150.807L473.106,514.407z M222.381,114.308c9.972-6.134,20.701-9.2,32.191-9.2c18.434,0,32.182,5.259,41.253,15.771
	c9.071,10.511,13.605,22.484,13.605,35.913c0,18.4-7.56,35.489-22.668,51.253c-7.861,8.469-19.395,20.302-38.994,31.097
	c-18.14-21.61-29.922-36.644-35.359-45.113c-8.469-12.846-12.697-25.114-12.697-36.794
	C199.712,137.673,207.265,123.365,222.381,114.308z M284.317,551.788c-19.376,7.483-38.18,14.05-58.936,14.05
	c-27.58,0-50.188-8.899-67.829-26.699c-17.649-17.799-26.467-37.347-26.467-58.65h-0.002c0.002-18.963,5.084-36.332,15.258-52.086
	c10.177-15.756,31.036-33.993,62.592-54.716l0.29-0.17l121.576,148.557C320.859,533.476,291.989,548.824,284.317,551.788z"/>
<g id="gradient-overlays">
	
		<linearGradient id="SVGID_1_" gradientUnits="userSpaceOnUse" x1="648.2376" y1="343.66" x2="811.3026" y2="267.6215" gradientTransform="matrix(1 0 0 1 -535 -161.818)">
		<stop  offset="0" style="stop-color:#FECD27"/>
		<stop  offset="1" style="stop-color:#FEE01A"/>
	</linearGradient>
	<path fill="url(#SVGID_1_)" d="M143.76,294.328c-18.653-21.009-33.078-42.455-43.275-64.34c-10.204-21.883-15.3-44.648-15.3-68.287
		c0-46.977,15.921-83.675,47.777-110.087C164.81,25.21,206.098,12,256.826,12l-2.254,93.107c-11.489,0-22.219,3.066-32.191,9.2
		c-15.115,9.057-22.668,23.365-22.668,42.927c0,11.68,4.227,23.947,12.697,36.793c5.437,8.469,17.219,23.503,35.359,45.113
		L143.76,294.328z"/>
	
		<linearGradient id="SVGID_2_" gradientUnits="userSpaceOnUse" x1="778.1077" y1="500.9914" x2="887.5291" y2="621.7798" gradientTransform="matrix(1 0 0 1 -535 -161.818)">
		<stop  offset="0" style="stop-color:#E1AF1F"/>
		<stop  offset="0.1413" style="stop-color:#E1AF1F;stop-opacity:0.8587"/>
		<stop  offset="1" style="stop-color:#E1AF1F;stop-opacity:0"/>
	</linearGradient>
	<polygon opacity="0.5" fill="url(#SVGID_2_)" enable-background="new    " points="208.935,373.688 300.802,485.549 
		330.799,522.074 330.799,522.074 398.121,604.049 439.257,654.137 590.064,654.137 473.106,514.407 402.559,426.811 
		309.971,314.545 	"/>
	
		<linearGradient id="SVGID_3_" gradientUnits="userSpaceOnUse" x1="785.1272" y1="403.1308" x2="733.97" y2="317.8678" gradientTransform="matrix(1 0 0 1 -535 -161.818)">
		<stop  offset="0" style="stop-color:#E1AF1F"/>
		<stop  offset="0.1413" style="stop-color:#E1AF1F;stop-opacity:0.8587"/>
		<stop  offset="1" style="stop-color:#E1AF1F;stop-opacity:0"/>
	</linearGradient>
	<path opacity="0.5" fill="url(#SVGID_3_)" enable-background="new    " d="M143.76,294.328
		c-18.653-21.009-33.078-42.455-43.275-64.34c-10.204-21.883-15.3-44.648-15.3-68.287c0-46.977,15.921-83.675,47.777-110.087
		C164.81,25.21,206.098,12,256.826,12l-2.254,93.107c-11.489,0-22.219,3.066-32.191,9.2c-15.115,9.057-22.668,23.365-22.668,42.927
		c0,11.68,4.227,23.947,12.697,36.793c5.437,8.469,17.219,23.503,35.359,45.113L143.76,294.328z"/>
	
		<linearGradient id="SVGID_4_" gradientUnits="userSpaceOnUse" x1="944.0439" y1="628.9539" x2="1012.2538" y2="555.0596" gradientTransform="matrix(1 0 0 1 -535 -161.818)">
		<stop  offset="0" style="stop-color:#E1AF1F"/>
		<stop  offset="0.1413" style="stop-color:#E1AF1F;stop-opacity:0.8587"/>
		<stop  offset="1" style="stop-color:#E1AF1F;stop-opacity:0"/>
	</linearGradient>
	<path fill="url(#SVGID_4_)" d="M518.444,439.87c16.857-40.045,26.303-79.652,28.345-118.823H436.197
		c-0.301,19.814-3.327,38.611-9.077,56.383c-5.751,17.771-13.94,34.233-24.561,49.381l70.548,87.596
		C494.033,487.223,509.142,462.382,518.444,439.87z"/>
	
		<linearGradient id="SVGID_5_" gradientUnits="userSpaceOnUse" x1="939.8893" y1="753.7454" x2="666.9203" y2="734.6574" gradientTransform="matrix(1 0 0 1 -535 -161.818)">
		<stop  offset="0" style="stop-color:#E1AF1F"/>
		<stop  offset="0.1413" style="stop-color:#E1AF1F;stop-opacity:0.8587"/>
		<stop  offset="1" style="stop-color:#E1AF1F;stop-opacity:0"/>
	</linearGradient>
	<path fill="url(#SVGID_5_)" d="M6.941,484.505c0,46.929,18.557,89.631,55.672,128.098c37.115,38.474,88.661,57.707,154.646,57.707
		c43.89,0,81.772-10.412,116.208-25.927c18.006-8.113,51.243-28.194,64.655-40.334l-67.323-81.975
		c-9.94,11.402-38.81,26.75-46.482,29.714c-19.376,7.483-38.18,14.05-58.936,14.05c-27.58,0-50.188-8.899-67.829-26.699
		c-17.649-17.799-26.467-37.347-26.467-58.65L6.941,484.505z"/>
	
		<linearGradient id="SVGID_6_" gradientUnits="userSpaceOnUse" x1="944.0439" y1="628.9539" x2="1012.2538" y2="555.0596" gradientTransform="matrix(1 0 0 1 -535 -161.818)">
		<stop  offset="0" style="stop-color:#E1AF1F"/>
		<stop  offset="0.092" style="stop-color:#F5C318"/>
		<stop  offset="1" style="stop-color:#FEE01A"/>
	</linearGradient>
	<path fill="url(#SVGID_6_)" d="M518.444,439.87c16.857-40.045,26.303-79.652,28.345-118.823H436.197
		c-0.301,19.814-3.327,38.611-9.077,56.383c-5.751,17.771-13.94,34.233-24.561,49.381l70.548,87.596
		C494.033,487.223,509.142,462.382,518.444,439.87z"/>
	
		<linearGradient id="SVGID_7_" gradientUnits="userSpaceOnUse" x1="939.8893" y1="753.7454" x2="666.9203" y2="734.6574" gradientTransform="matrix(1 0 0 1 -535 -161.818)">
		<stop  offset="0" style="stop-color:#E1AF1F"/>
		<stop  offset="0.092" style="stop-color:#F5C318"/>
		<stop  offset="1" style="stop-color:#FEE01A"/>
	</linearGradient>
	<path fill="url(#SVGID_7_)" d="M6.941,484.505c0,46.929,18.557,89.631,55.672,128.098c37.115,38.474,88.661,57.707,154.646,57.707
		c43.89,0,81.772-10.412,116.208-25.927c18.006-8.113,51.243-28.194,64.655-40.334l-67.323-81.975
		c-9.94,11.402-38.81,26.75-46.482,29.714c-19.376,7.483-38.18,14.05-58.936,14.05c-27.58,0-50.188-8.899-67.829-26.699
		c-17.649-17.799-26.467-37.347-26.467-58.65L6.941,484.505z"/>
	
		<linearGradient id="SVGID_8_" gradientUnits="userSpaceOnUse" x1="1125.064" y1="644.878" x2="742.269" y2="644.878" gradientTransform="matrix(1 0 0 1 -535 -161.818)">
		<stop  offset="0" style="stop-color:#FEE01A"/>
		<stop  offset="1" style="stop-color:#FECD27"/>
	</linearGradient>
	<polygon fill="url(#SVGID_8_)" points="207.269,371.126 300.802,485.549 330.799,522.074 330.799,522.074 398.121,604.049 
		439.257,654.137 590.064,654.137 473.106,514.407 402.559,426.811 308.304,311.983 	"/>
</g>
<g enable-background="new    ">
	<path d="M734.212,131.958v146.526h-48.196V131.958h-20.021V96.317h20.021V72.916c0-26.642,17.054-53.643,56.353-53.643h27.436
		v39.602h-18.908c-11.493,0-16.684,6.121-16.684,16.921v20.521h35.592v35.642H734.212z"/>
</g>
<g enable-background="new    ">
	<path d="M940.341,257.604c-11.863,12.24-31.512,23.041-60.059,23.041c-28.548,0-47.826-10.801-59.69-23.041
		c-17.425-17.641-21.873-38.882-21.873-73.083c0-33.841,4.448-55.082,21.873-72.723c11.864-12.24,31.143-23.041,59.69-23.041
		c28.547,0,48.196,10.801,60.059,23.041c17.426,17.641,21.875,38.882,21.875,72.723
		C962.216,218.722,957.767,239.963,940.341,257.604z M902.897,139.158c-5.562-5.4-12.977-8.28-22.615-8.28
		c-9.64,0-16.684,2.88-22.245,8.28c-10.01,9.721-11.122,25.921-11.122,45.362c0,19.441,1.112,36.002,11.122,45.722
		c5.562,5.4,12.605,8.28,22.245,8.28c9.639,0,17.054-2.88,22.615-8.28c10.01-9.72,11.122-26.281,11.122-45.722
		C914.019,165.08,912.908,148.879,902.897,139.158z"/>
</g>
<g enable-background="new    ">
	<path d="M1105.695,142.039c-7.414-7.201-13.717-11.161-25.58-11.161c-14.83,0-31.143,10.8-31.143,34.562v113.045h-48.197V90.916
		h47.084v18.001c9.27-10.801,27.807-20.161,48.568-20.161c18.908,0,32.254,4.68,45.602,17.641L1105.695,142.039z"/>
	<path d="M1394.128,278.485V165.08c0-25.562-16.684-34.202-31.883-34.202c-14.83,0-32.256,8.64-32.256,33.122v114.485h-48.195
		V165.08c0-25.562-16.684-34.202-31.885-34.202c-15.199,0-32.254,8.64-32.254,34.202v113.405h-48.197V90.916h47.084v17.281
		c12.605-12.601,30.402-19.441,48.197-19.441c21.504,0,38.928,7.561,51.162,23.761c16.312-16.561,33.738-23.761,57.836-23.761
		c19.279,0,36.703,6.121,47.455,16.561c15.572,15.121,21.133,32.761,21.133,53.282v119.885H1394.128z"/>
</g>
<g enable-background="new    ">
	<path d="M741.48,574.414c-30.4,0-57.836-3.24-82.305-27.001l31.514-30.602c15.941,15.48,36.703,17.641,51.533,17.641
		c16.683,0,34.108-5.4,34.108-19.44c0-9.36-5.19-15.841-20.392-17.281l-30.4-2.88c-34.85-3.24-56.354-18.001-56.354-52.562
		c0-38.882,35.221-59.763,74.52-59.763c30.03,0,55.241,5.04,73.778,21.961l-29.66,29.161c-11.122-9.72-28.176-12.601-44.859-12.601
		c-19.278,0-27.436,8.641-27.436,18.001c0,6.841,2.967,14.761,20.021,16.201l30.401,2.88c38.187,3.601,57.465,23.401,57.465,55.082
		C823.415,554.613,787.082,574.414,741.48,574.414z"/>
</g>
<g enable-background="new    ">
	<path d="M935.748,602.495c-4.078,10.44-8.527,18.361-14.459,24.121c-11.123,10.801-25.582,14.4-41.524,14.4h-18.907v-42.121h11.122
		c13.718,0,19.278-3.24,24.099-16.921l8.156-23.041l-65.992-174.248h50.791l40.041,115.925l38.557-115.925h50.793L935.748,602.495z"
		/>
</g>
<g enable-background="new    ">
	<path d="M1095.535,574.414c-30.4,0-57.836-3.24-82.305-27.001l31.514-30.602c15.941,15.48,36.703,17.641,51.533,17.641
		c16.682,0,34.107-5.4,34.107-19.44c0-9.36-5.189-15.841-20.391-17.281l-30.4-2.88c-34.85-3.24-56.354-18.001-56.354-52.562
		c0-38.882,35.221-59.763,74.52-59.763c30.029,0,55.24,5.04,73.777,21.961l-29.66,29.161c-11.121-9.72-28.176-12.601-44.859-12.601
		c-19.277,0-27.436,8.641-27.436,18.001c0,6.841,2.967,14.761,20.021,16.201l30.4,2.88c38.188,3.601,57.465,23.401,57.465,55.082
		C1177.468,554.613,1141.136,574.414,1095.535,574.414z"/>
	<path d="M1274.603,572.254c-39.299,0-55.982-27.001-55.982-53.643v-92.884h-20.391v-35.642h20.391v-55.442h48.197v55.442h34.107
		v35.642h-34.107v90.004c0,10.801,5.189,16.921,16.684,16.921h17.424v39.602H1274.603z"/>
</g>
<g enable-background="new    ">
	<path d="M1386.191,493.051c0,24.121,15.199,41.762,42.264,41.762c21.133,0,31.514-5.761,43.748-17.641l29.289,27.721
		c-19.65,19.081-38.557,29.521-73.408,29.521c-45.6,0-89.348-20.161-89.348-96.124c0-61.203,34.107-95.765,84.158-95.765
		c53.758,0,84.158,38.161,84.158,89.645v20.881H1386.191z M1455.148,440.848c-5.189-11.16-15.941-19.44-32.254-19.44
		s-27.064,8.28-32.254,19.44c-2.967,6.841-4.078,11.881-4.449,20.161h73.406C1459.226,452.729,1458.115,447.689,1455.148,440.848z"
		/>
</g>
<g enable-background="new    ">
	<path d="M1768.792,572.254V458.849c0-25.561-16.684-34.201-31.885-34.201c-14.83,0-32.254,8.641-32.254,33.121v114.485h-48.197
		V458.849c0-25.561-16.684-34.201-31.883-34.201c-15.201,0-32.256,8.641-32.256,34.201v113.405h-48.195V384.686h47.084v17.28
		c12.605-12.601,30.4-19.44,48.195-19.44c21.504,0,38.93,7.561,51.164,23.761c16.312-16.561,33.736-23.761,57.836-23.761
		c19.277,0,36.703,6.12,47.455,16.561c15.57,15.121,21.131,32.762,21.131,53.282v119.886H1768.792z"/>
</g>
</svg>
