<?xml version="1.0" encoding="utf-8"?>
<!-- Generator: Adobe Illustrator 17.0.0, SVG Export Plug-In . SVG Version: 6.00 Build 0)  -->
<!DOCTYPE svg PUBLIC "-//W3C//DTD SVG 1.1//EN" "http://www.w3.org/Graphics/SVG/1.1/DTD/svg11.dtd">
<svg version="1.1" id="formandsystem-font" xmlns="http://www.w3.org/2000/svg" xmlns:xlink="http://www.w3.org/1999/xlink" x="0px"
	 y="0px" width="1823.999px" height="679.182px" viewBox="0 0 1823.999 679.182" enable-background="new 0 0 1823.999 679.182"
	 xml:space="preserve">
<path id="_x26_" fill="#FEE01A" d="M473.106,514.407l-0.19-0.235c20.439-26.703,36.376-52.154,45.527-74.302
	c16.857-40.045,26.303-79.652,28.345-118.823H436.197c-0.301,19.814-3.327,38.611-9.077,56.383
	c-5.423,16.756-14.543,34.791-24.47,49.494l-0.091-0.113l-92.294-112.439c34.924-20.121,61.432-41.987,79.508-65.6
	c18.127-23.673,27.19-54.511,27.19-92.513c0-42.094-15.115-76.661-45.344-103.702c-30.23-27.034-68.492-40.556-114.793-40.556
	c-50.727,0-92.015,13.209-123.864,39.614c-31.856,26.413-47.777,63.11-47.777,110.087c0,23.639,5.096,46.404,15.3,68.286
	c10.197,21.885,24.622,43.331,43.275,64.34l-13.551,8.306c-43.713,27.109-75.186,54.504-94.419,82.193
	c-19.234,27.689-28.85,60.917-28.85,99.678l0.383-0.012l-0.381,0.012c0,46.929,18.557,89.631,55.672,128.098
	c37.115,38.474,88.661,57.707,154.646,57.707c43.89,0,81.772-10.412,116.208-25.927c18.006-8.113,51.242-28.194,64.654-40.333
	l41.136,50.087h150.807L473.106,514.407z M222.381,114.308c9.972-6.134,20.701-9.2,32.191-9.2c18.434,0,32.182,5.259,41.253,15.771
	c9.071,10.511,13.605,22.484,13.605,35.913c0,18.4-7.56,35.489-22.668,51.253c-7.861,8.469-19.395,20.302-38.994,31.097
	c-18.14-21.61-29.922-36.644-35.359-45.113c-8.469-12.846-12.697-25.114-12.697-36.794
	C199.712,137.673,207.265,123.365,222.381,114.308z M284.317,551.788c-19.376,7.483-38.18,14.05-58.936,14.05
	c-27.58,0-50.188-8.899-67.829-26.699c-17.649-17.799-26.467-37.347-26.467-58.65l-0.002,0c0.002-18.963,5.084-36.332,15.258-52.086
	c10.177-15.756,31.036-33.993,62.592-54.716l0.29-0.17l121.576,148.557C320.859,533.476,291.989,548.824,284.317,551.788z"/>
<g id="gradient-overlays">
	
		<linearGradient id="SVGID_1_" gradientUnits="userSpaceOnUse" x1="380.7376" y1="107.34" x2="543.8026" y2="183.3785" gradientTransform="matrix(1 0 0 -1 -267.5 289.182)">
		<stop  offset="0" style="stop-color:#FECD27"/>
		<stop  offset="1" style="stop-color:#FEE01A"/>
	</linearGradient>
	<path fill="url(#SVGID_1_)" d="M143.76,294.328c-18.653-21.009-33.078-42.455-43.275-64.34c-10.204-21.883-15.3-44.648-15.3-68.287
		c0-46.977,15.921-83.675,47.777-110.087C164.81,25.21,206.098,12,256.826,12l-2.254,93.107c-11.489,0-22.219,3.066-32.191,9.2
		c-15.115,9.057-22.668,23.365-22.668,42.927c0,11.68,4.227,23.947,12.697,36.793c5.437,8.469,17.219,23.503,35.359,45.113
		L143.76,294.328z"/>
	
		<linearGradient id="SVGID_2_" gradientUnits="userSpaceOnUse" x1="510.6077" y1="-49.9914" x2="620.029" y2="-170.7798" gradientTransform="matrix(1 0 0 -1 -267.5 289.182)">
		<stop  offset="0" style="stop-color:#E1AF1F"/>
		<stop  offset="0.1413" style="stop-color:#E1AF1F;stop-opacity:0.8587"/>
		<stop  offset="1" style="stop-color:#E1AF1F;stop-opacity:0"/>
	</linearGradient>
	<polygon opacity="0.5" fill="url(#SVGID_2_)" enable-background="new    " points="208.935,373.688 300.802,485.549 
		330.799,522.074 330.799,522.074 398.121,604.049 439.257,654.137 590.064,654.137 473.106,514.407 402.559,426.811 
		309.971,314.545 	"/>
	
		<linearGradient id="SVGID_3_" gradientUnits="userSpaceOnUse" x1="517.6272" y1="47.8692" x2="466.47" y2="133.1322" gradientTransform="matrix(1 0 0 -1 -267.5 289.182)">
		<stop  offset="0" style="stop-color:#E1AF1F"/>
		<stop  offset="0.1413" style="stop-color:#E1AF1F;stop-opacity:0.8587"/>
		<stop  offset="1" style="stop-color:#E1AF1F;stop-opacity:0"/>
	</linearGradient>
	<path opacity="0.5" fill="url(#SVGID_3_)" enable-background="new    " d="M143.76,294.328
		c-18.653-21.009-33.078-42.455-43.275-64.34c-10.204-21.883-15.3-44.648-15.3-68.287c0-46.977,15.921-83.675,47.777-110.087
		C164.81,25.21,206.098,12,256.826,12l-2.254,93.107c-11.489,0-22.219,3.066-32.191,9.2c-15.115,9.057-22.668,23.365-22.668,42.927
		c0,11.68,4.227,23.947,12.697,36.793c5.437,8.469,17.219,23.503,35.359,45.113L143.76,294.328z"/>
	
		<linearGradient id="SVGID_4_" gradientUnits="userSpaceOnUse" x1="676.5439" y1="-177.9539" x2="744.7538" y2="-104.0595" gradientTransform="matrix(1 0 0 -1 -267.5 289.182)">
		<stop  offset="0" style="stop-color:#E1AF1F"/>
		<stop  offset="0.1413" style="stop-color:#E1AF1F;stop-opacity:0.8587"/>
		<stop  offset="1" style="stop-color:#E1AF1F;stop-opacity:0"/>
	</linearGradient>
	<path fill="url(#SVGID_4_)" d="M518.444,439.87c16.857-40.045,26.303-79.652,28.345-118.823H436.197
		c-0.301,19.814-3.327,38.611-9.077,56.383c-5.751,17.771-13.94,34.233-24.561,49.381l70.548,87.596
		C494.033,487.223,509.142,462.382,518.444,439.87z"/>
	
		<linearGradient id="SVGID_5_" gradientUnits="userSpaceOnUse" x1="672.3893" y1="-302.7453" x2="399.4203" y2="-283.6574" gradientTransform="matrix(1 0 0 -1 -267.5 289.182)">
		<stop  offset="0" style="stop-color:#E1AF1F"/>
		<stop  offset="0.1413" style="stop-color:#E1AF1F;stop-opacity:0.8587"/>
		<stop  offset="1" style="stop-color:#E1AF1F;stop-opacity:0"/>
	</linearGradient>
	<path fill="url(#SVGID_5_)" d="M6.941,484.505c0,46.929,18.557,89.631,55.672,128.098c37.115,38.474,88.661,57.707,154.646,57.707
		c43.89,0,81.772-10.412,116.208-25.927c18.006-8.113,51.243-28.194,64.655-40.334l-67.323-81.975
		c-9.94,11.402-38.81,26.75-46.482,29.714c-19.376,7.483-38.18,14.05-58.936,14.05c-27.58,0-50.188-8.899-67.829-26.699
		c-17.649-17.799-26.467-37.347-26.467-58.65L6.941,484.505z"/>
	
		<linearGradient id="SVGID_6_" gradientUnits="userSpaceOnUse" x1="676.5439" y1="-177.9539" x2="744.7538" y2="-104.0595" gradientTransform="matrix(1 0 0 -1 -267.5 289.182)">
		<stop  offset="0" style="stop-color:#E1AF1F"/>
		<stop  offset="0.092" style="stop-color:#F5C318"/>
		<stop  offset="1" style="stop-color:#FEE01A"/>
	</linearGradient>
	<path fill="url(#SVGID_6_)" d="M518.444,439.87c16.857-40.045,26.303-79.652,28.345-118.823H436.197
		c-0.301,19.814-3.327,38.611-9.077,56.383c-5.751,17.771-13.94,34.233-24.561,49.381l70.548,87.596
		C494.033,487.223,509.142,462.382,518.444,439.87z"/>
	
		<linearGradient id="SVGID_7_" gradientUnits="userSpaceOnUse" x1="672.3893" y1="-302.7453" x2="399.4203" y2="-283.6574" gradientTransform="matrix(1 0 0 -1 -267.5 289.182)">
		<stop  offset="0" style="stop-color:#E1AF1F"/>
		<stop  offset="0.092" style="stop-color:#F5C318"/>
		<stop  offset="1" style="stop-color:#FEE01A"/>
	</linearGradient>
	<path fill="url(#SVGID_7_)" d="M6.941,484.505c0,46.929,18.557,89.631,55.672,128.098c37.115,38.474,88.661,57.707,154.646,57.707
		c43.89,0,81.772-10.412,116.208-25.927c18.006-8.113,51.243-28.194,64.655-40.334l-67.323-81.975
		c-9.94,11.402-38.81,26.75-46.482,29.714c-19.376,7.483-38.18,14.05-58.936,14.05c-27.58,0-50.188-8.899-67.829-26.699
		c-17.649-17.799-26.467-37.347-26.467-58.65L6.941,484.505z"/>
	
		<linearGradient id="SVGID_8_" gradientUnits="userSpaceOnUse" x1="857.564" y1="-193.878" x2="474.769" y2="-193.878" gradientTransform="matrix(1 0 0 -1 -267.5 289.182)">
		<stop  offset="0" style="stop-color:#FEE01A"/>
		<stop  offset="1" style="stop-color:#FECD27"/>
	</linearGradient>
	<polygon fill="url(#SVGID_8_)" points="207.269,371.126 300.802,485.549 330.799,522.074 330.799,522.074 398.121,604.049 
		439.257,654.137 590.064,654.137 473.106,514.407 402.559,426.811 308.304,311.983 	"/>
</g>
<text transform="matrix(1.0298 0 0 1 653.0186 278.4844)" fill="#060709" font-family="'DINPro-Bold'" font-size="360.0156">f</text>
<text transform="matrix(1.0298 0 0 1 779.8105 278.4844)" fill="#060709" font-family="'DINPro-Bold'" font-size="360.0156" letter-spacing="-5.826">o</text>
<text transform="matrix(1.0298 0 0 1 973.71 278.4844)" fill="#060709" font-family="'DINPro-Bold'" font-size="360.0156">rm</text>
<text transform="matrix(1.0298 0 0 1 651.0186 572.2539)" fill="#060709" font-family="'DINPro-Bold'" font-size="360.0156">s</text>
<text transform="matrix(1.0298 0 0 1 836.7588 572.2539)" fill="#060709" font-family="'DINPro-Bold'" font-size="360.0156" letter-spacing="-12.624">y</text>
<text transform="matrix(1.0298 0 0 1 1005.0723 572.2539)" fill="#060709" font-family="'DINPro-Bold'" font-size="360.0156">st</text>
<text transform="matrix(1.0298 0 0 1 1321.3105 572.2539)" fill="#060709" font-family="'DINPro-Bold'" font-size="360.0156" letter-spacing="-5.826">e</text>
<text transform="matrix(1.0298 0 0 1 1517.0576 572.2539)" fill="#060709" font-family="'DINPro-Bold'" font-size="360.0156">m</text>
</svg>
