<?xml version="1.0" encoding="utf-8"?>
<!-- Generator: Adobe Illustrator 17.0.0, SVG Export Plug-In . SVG Version: 6.00 Build 0)  -->
<!DOCTYPE svg PUBLIC "-//W3C//DTD SVG 1.1//EN" "http://www.w3.org/Graphics/SVG/1.1/DTD/svg11.dtd">
<svg version="1.1" id="Layer_1" xmlns="http://www.w3.org/2000/svg" xmlns:xlink="http://www.w3.org/1999/xlink" x="0px" y="0px"
	 width="512px" height="512px" viewBox="0 0 512 512" enable-background="new 0 0 512 512" xml:space="preserve">
<path d="M219.249,414.555H97.444v-48.722h121.805V414.555z M292.332,317.111H97.444v-48.722h194.889L292.332,317.111
	L292.332,317.111z M292.332,219.667H97.444v-48.722h194.889L292.332,219.667L292.332,219.667z"/>
<path d="M389.777,512H0V73.5h389.778L389.777,512L389.777,512z M48.722,463.278h292.333V122.222H48.722V463.278z"/>
<g opacity="0.6">
	<polygon points="72,0 72,73.5 120.722,73.5 120.722,48.722 413.055,48.722 413.055,389.778 389.778,389.778 389.778,438.5 
		461.777,438.5 461.778,438.5 461.778,0 	"/>
</g>
</svg>
