<?xml version="1.0" encoding="utf-8"?>
<!-- Generator: Adobe Illustrator 17.0.0, SVG Export Plug-In . SVG Version: 6.00 Build 0)  -->
<!DOCTYPE svg PUBLIC "-//W3C//DTD SVG 1.1//EN" "http://www.w3.org/Graphics/SVG/1.1/DTD/svg11.dtd">
<svg version="1.1" id="Layer_1" xmlns="http://www.w3.org/2000/svg" xmlns:xlink="http://www.w3.org/1999/xlink" x="0px" y="0px"
	 width="24px" height="26px" viewBox="0 0 24 26" enable-background="new 0 0 24 26" xml:space="preserve">
<title>collection</title>
<desc>Created with Sketch.</desc>
<g id="Symbols">
	<g id="collection">
		<g>
			<polygon id="Rectangle-46" opacity="0.6" enable-background="new    " points="3.435,14.992 0.686,16.992 12,25.225 
				23.314,16.992 20.565,14.992 18.908,16.197 20,16.992 12,22.813 4,16.992 5.092,16.197 			"/>
			<polygon id="Rectangle-46_1_" opacity="0.8" enable-background="new    " points="3.435,10.992 0.686,12.992 12,21.225 
				23.314,12.992 20.565,10.992 18.908,12.197 20,12.992 12,18.813 4,12.992 5.092,12.197 			"/>
		</g>
	</g>
</g>
<path d="M12,0.759L0.686,8.992L12,17.225l11.314-8.233L12,0.759z M4.144,8.992L12,3.275l7.856,5.717L12,14.708L4.144,8.992z"/>
</svg>
