<?xml version="1.0" encoding="UTF-8" standalone="no"?>
<svg width="20px" height="20px" viewBox="0 0 20 20" version="1.1" xmlns="http://www.w3.org/2000/svg" xmlns:xlink="http://www.w3.org/1999/xlink">
    <g id="projects">
        <path d="M0,0 L0,9 L9,9 L9,0 L0,0 L0,0 L0,0 Z M7,7 L2,7 L2,2 L7,2 L7,7 L7,7 L7,7 Z" id="Shape"></path>
        <path d="M0,11 L0,20 L9,20 L9,11 L0,11 L0,11 L0,11 Z M7,18 L2,18 L2,13 L7,13 L7,18 L7,18 L7,18 Z" id="Shape"></path>
        <path d="M11,0 L11,9 L20,9 L20,0 L11,0 L11,0 L11,0 Z M18,7 L13,7 L13,2 L18,2 L18,7 L18,7 L18,7 Z" id="Shape"></path>
        <path d="M11,11 L11,20 L20,20 L20,11 L11,11 L11,11 L11,11 Z M18,18 L13,18 L13,13 L18,13 L18,18 L18,18 L18,18 Z" id="Shape"></path>
    </g>
    <rect class="fill-rect"></rect>
</svg>
