<?xml version="1.0" encoding="UTF-8" standalone="no"?>
<svg width="20px" height="20px" viewBox="0 0 20 20" version="1.1" xmlns="http://www.w3.org/2000/svg" xmlns:xlink="http://www.w3.org/1999/xlink">
    <!-- Generator: Sketch 3.8.2 (29753) - http://www.bohemiancoding.com/sketch -->
    <title>Settings</title>
    <desc>Created with Sketch.</desc>
    <defs></defs>
    <g id="Symbols" stroke="none" stroke-width="1" fill="none" fill-rule="evenodd">
        <g id="Settings" fill="#000000">
            <path d="M17.5613822,12.1428571 C17.3932784,12.7372075 17.1569866,13.3029284 16.8614922,13.8310346 L18.5862966,15.555839 L15.555839,18.5862966 L13.8310346,16.8614922 C13.3029284,17.1569866 12.7372075,17.3932784 12.1428571,17.5613822 L12.1428571,20 L7.85714286,20 L7.85714286,17.5613822 C7.26279247,17.3932784 6.69707157,17.1569866 6.16896544,16.8614922 L4.444161,18.5862966 L1.41370337,15.555839 L3.13850781,13.8310346 C2.84301339,13.3029284 2.60672163,12.7372075 2.4386178,12.1428571 L3.55271368e-15,12.1428571 L3.55271368e-15,7.85714286 L2.4386178,7.85714286 C2.60672163,7.26279247 2.84301339,6.69707157 3.13850781,6.16896544 L1.41370337,4.444161 L4.444161,1.41370337 L6.16896544,3.13850781 C6.69707157,2.84301339 7.26279247,2.60672163 7.85714286,2.4386178 L7.85714286,0 L12.1428571,0 L12.1428571,2.4386178 C12.7372075,2.60672163 13.3029284,2.84301339 13.8310346,3.13850781 L15.555839,1.41370337 L18.5862966,4.444161 L16.8614922,6.16896544 C17.1569866,6.69707157 17.3932784,7.26279247 17.5613822,7.85714286 L20,7.85714286 L20,12.1428571 L17.5613822,12.1428571 Z M10,14.2857143 C12.3669348,14.2857143 14.2857143,12.3669348 14.2857143,10 C14.2857143,7.63306524 12.3669348,5.71428571 10,5.71428571 C7.63306524,5.71428571 5.71428571,7.63306524 5.71428571,10 C5.71428571,12.3669348 7.63306524,14.2857143 10,14.2857143 Z" id="Settings-2"></path>
        </g>
    </g>
</svg>