<svg id="svg_sprite" style="display: none;">
  <defs>
    <g id="icon-eye-closed">
      <path d="M253.255,97.425C94.591,97.425,0,245.644,0,245.644s96.71,158.231,255.375,158.231S510.75,244.266,510.75,244.266

		S411.92,97.425,253.255,97.425z M254.226,340.031c-49.364,0-89.382-40.018-89.382-89.381c0-49.364,40.018-89.382,89.382-89.382

		s89.381,40.017,89.381,89.382S303.59,340.031,254.226,340.031z M255.375,199.728c28.123,0,50.922,22.799,50.922,50.922

		s-22.799,50.922-50.922,50.922s-50.922-22.799-50.922-50.922S227.252,199.728,255.375,199.728z"></path>
    </g>
    <path d="M253.875,102.4C94.822,102.4,0,250.982,0,250.982S96.947,409.6,256,409.6s256-160,256-160S412.928,102.4,253.875,102.4z

	 M254.848,345.6c-49.485,0-89.6-40.115-89.6-89.6s40.115-89.6,89.6-89.6s89.6,40.115,89.6,89.6S304.333,345.6,254.848,345.6z" id="icon-eye"></path>
    <g id="icon-formandsystem">
      <g>
        <path fill="none" d="M137.611,323.886c-7.909,12.258-11.855,25.763-11.848,40.514c0.008,16.568,6.872,31.768,20.605,45.604

			c13.727,13.837,31.312,20.751,52.762,20.741c16.143-0.007,30.765-5.121,45.832-10.948c5.966-2.307,28.413-14.254,36.14-23.126

			l-23.342-28.396l-71.488-86.966C161.737,297.438,145.52,311.629,137.611,323.886z"></path>
        <path fill="none" d="M246.741,152.458c11.744-12.265,17.618-25.559,17.612-39.869c-0.005-10.444-3.536-19.754-10.594-27.926

			c-7.058-8.172-17.753-12.258-32.089-12.251c-8.935,0.004-17.279,2.393-25.032,7.167c-11.752,7.049-17.622,18.18-17.615,33.393

			c0.004,9.084,3.296,18.623,9.888,28.611c4.231,6.585,13.4,18.273,27.515,35.073C230.525,167.116,240.63,159.048,246.741,152.458z"></path>
        <lineargradient id="3d8d0966154a94b67d9008fe01485da4SVGID_1_" gradientunits="userSpaceOnUse" x1="1796.8381" y1="661.2556" x2="1509.4893" y2="312.0159" gradienttransform="matrix(1 -4.546144e-04 4.546144e-04 1 -1435.1426 -165.5652)">
          <stop offset="0" style="stop-color:#FFCD23"></stop>
          <stop offset="1" style="stop-color:#FFE119"></stop>
        </lineargradient>
        <path fill="url(#3d8d0966154a94b67d9008fe01485da4SVGID_1_)" d="M281.101,396.672l-23.342-28.396L281.101,396.672z"></path>
      </g>
      <path fill="#FFDC00" d="M391.775,390.659L391.775,390.659c16.266-21.15,28.008-40.474,35.234-57.985

		c13.096-31.15,20.428-61.957,22.003-92.422l-86.011,0.039c-0.227,15.41-2.574,30.03-7.04,43.854

		c-4.466,13.823-10.829,26.628-19.084,38.413l-72.048-87.279c27.269-15.698,47.951-32.759,62.041-51.181

		c14.09-18.418,21.127-42.405,21.114-71.96c-0.015-32.738-11.782-59.616-35.302-80.636C289.162,10.487,259.4-0.016,223.39,0

		c-39.452,0.018-71.558,10.306-96.319,30.852c-24.765,20.553-37.135,49.099-37.118,85.635c0.008,18.385,3.979,36.088,11.923,53.103

		c7.938,17.017,19.165,33.692,33.678,50.023l-10.535,6.464c-33.987,21.099-58.455,42.416-73.403,63.958

		c-14.948,21.541-22.416,47.388-22.402,77.533l0,0l0,0c0.017,36.498,14.464,69.702,43.343,99.606

		c28.879,29.909,68.975,44.849,120.293,44.825c34.134-0.015,63.593-8.127,90.369-20.205c8.01-3.613,19.892-10.275,30.549-17.082

		l-49.614-60.356l-2.607-3.171c-7.027,4.158-13.715,7.503-16.586,8.613c-15.066,5.827-29.689,10.941-45.832,10.948

		c-21.45,0.01-39.036-6.904-52.762-20.741c-13.732-13.837-20.597-29.036-20.605-45.604c-0.007-14.751,3.939-28.256,11.848-40.514

		c7.909-12.258,24.126-26.448,48.66-42.576h0.002l71.487,86.965l23.342,28.396l52.388,63.731l32.01,38.94l117.287-0.053

		L391.775,390.659z M246.741,152.457c-6.112,6.59-15.077,15.796-30.316,24.199c-14.115-16.799-23.283-28.487-27.514-35.072

		c-6.592-9.988-9.884-19.527-9.888-28.611c-0.007-15.213,5.863-26.344,17.615-33.393c7.753-4.774,16.097-7.163,25.032-7.167v-0.002

		c14.336-0.007,25.031,4.079,32.089,12.251s10.589,17.482,10.594,27.926C264.359,126.898,258.485,140.192,246.741,152.457z"></path>
    </g>
    <path d="M245.376,368.875l-73.066,73.094c-13.759,13.73-32.103,21.307-51.673,21.307c-19.37,0-37.544-7.463-51.075-20.994

	c-13.588-13.588-21.051-31.79-20.994-51.246c0.057-19.484,7.606-37.772,21.307-51.474l72.639-72.639l0,0l46.603-46.574

	c20.538-20.51,68.708-11.052,91.012,11.28c0.171,0.171,0.313,0.37,0.484,0.541c10.967,11.195,17.832,25.466,19.855,40.962

	c6.267-2.307,12.078-5.783,16.892-10.597l24.042-24.013c-4.13-10.54-9.799-20.424-16.75-29.483l0.085-0.085

	c-0.256-0.342-0.57-0.627-0.855-0.969c-2.849-3.618-5.868-7.121-9.144-10.426c-0.085-0.085-0.142-0.171-0.228-0.256

	c-2.535-2.535-5.241-4.957-8.09-7.292c-9.999-8.346-21.165-14.955-33.129-19.598l-0.199,0.256

	c-39.766-16.066-88.42-14.613-118.33,15.325l-57.057,57.028l-62.184,62.184C12.705,328.055,0.057,358.506,0,390.923

	c-0.057,32.445,12.42,62.896,35.237,85.685c22.703,22.732,53.04,35.237,85.4,35.237c32.531,0,63.096-12.648,85.998-35.55

	L311.89,371.011c-9.429,1.909-19.142,2.877-29.027,2.877C270.016,373.888,257.454,372.094,245.376,368.875 M484.115,198.074

	c0.769-0.969,1.453-1.965,2.222-2.934c1.652-2.136,3.333-4.273,4.814-6.466c0.57-0.855,1.054-1.738,1.624-2.592

	c1.567-2.421,3.076-4.9,4.444-7.406c0.399-0.741,0.741-1.51,1.139-2.25c1.424-2.763,2.792-5.555,3.988-8.432

	c0.199-0.513,0.399-1.054,0.627-1.567c1.31-3.247,2.478-6.495,3.532-9.828c0.028-0.142,0.085-0.256,0.114-0.427

	c11.195-36.576,5.042-77.538-19.57-109.471l-0.399,0.285c-3.133-4.016-6.409-7.948-10.084-11.622

	c-22.732-22.703-53.069-35.208-85.429-35.208c-32.559,0-63.096,12.619-85.998,35.55l-45.15,45.121l-0.028-0.028l-32.189,32.189

	l-33.243,33.214c-0.57,0.598-1.054,1.225-1.624,1.795c21.535-4.928,44.865-4.102,66.941,1.595l34.838-34.81l44.78-44.723

	c13.73-13.759,32.103-21.336,51.673-21.336c19.37,0,37.544,7.463,51.075,20.994c13.559,13.588,21.022,31.79,20.994,51.246

	c-0.057,17.576-6.238,34.154-17.49,47.286c-1.139,1.339-2.307,2.649-3.561,3.903L334.565,279.743

	c-28.4,28.4-74.49,28.543-102.748,0.313c-14.869-14.927-22.19-34.354-21.991-53.297c-3.789,1.054-6.979,2.735-9.286,5.042

	l-33.3,33.271c2.45,7.549,5.811,14.87,9.771,21.934h-0.427c5.469,10.055,12.363,19.399,20.652,27.688

	c22.732,22.732,53.04,35.208,85.4,35.208c32.559,0,63.067-12.619,85.998-35.522l107.591-107.591

	c2.222-2.222,4.244-4.558,6.267-6.922C483.032,199.242,483.602,198.701,484.115,198.074" id="icon-link"></path>
    <g id="icon-page-add">
      <polygon points="476.5,379.778 401.167,379.778 401.167,304.444 344.277,304.444 344.277,379.778 268.944,379.778 268.944,436.666 

	344.277,436.666 344.277,512 401.167,512 401.167,436.666 476.499,436.666 "></polygon>
      <polygon class="page-outline" points="221,379.768 85.334,379.768 85.334,56.889 344.889,56.889 344.889,247.444 401.778,247.444 401.778,0 28.445,0 

	28.445,436.657 221,436.657 "></polygon>
    </g>
    <g id="icon-page">
      <path d="M284.444,398.222H142.222v-56.889h142.222V398.222z M369.777,284.444H142.222v-56.889h227.556L369.777,284.444

	L369.777,284.444z M369.777,170.667H142.222v-56.889h227.556L369.777,170.667L369.777,170.667z"></path>
      <path d="M483.555,512H28.445V0h455.111v512H483.555z M85.334,455.111h341.333V56.889H85.334V455.111z"></path>
    </g>
    <polygon points="196.923,196.923 196.923,0 315.077,0 315.077,196.923 512,196.923 512,315.077 315.077,315.077 315.077,512 

	196.923,512 196.923,315.077 0,315.077 0,196.923 " id="icon-plus"></polygon>
    <path d="M384.41,330.972c21.18-34.308,33.231-75.283,32.616-119.129C415.359,93.252,321.691-1.595,207.844,0.02

	C93.997,1.636,3.098,99.073,4.765,217.664s95.334,213.438,209.182,211.823c41.308-0.564,79.591-13.769,111.54-36.026L447.385,512

	l59.872-61.59L384.41,330.972z M212.767,346.87c-67.462,0.949-124.335-56.667-125.386-130.36

	C86.33,142.817,141.587,83.611,209.024,82.662c67.437-0.949,124.335,56.667,125.386,130.36S280.204,345.921,212.767,346.87z" id="icon-search"></path>
    <path d="M512,310.861V201.139h-62.618c-4.301-15.181-10.24-29.645-17.792-43.136l44.237-44.237l-77.568-77.568l-44.237,44.237

	c-13.491-7.552-27.955-13.491-43.136-17.792V0H201.139v62.618c-15.181,4.301-29.645,10.24-43.136,17.792l-44.237-44.211

	l-77.568,77.568l44.237,44.237c-7.552,13.491-13.517,27.955-17.818,43.136H0v109.722h62.618

	c4.301,15.181,10.24,29.645,17.792,43.136l-44.237,44.237l77.568,77.568l44.237-44.237c13.491,7.552,27.955,13.491,43.136,17.792

	V512h109.722v-62.618c15.181-4.301,29.645-10.24,43.136-17.792l44.237,44.237l77.568-77.568l-44.237-44.237

	c7.552-13.491,13.491-27.955,17.792-43.136H512V310.861z M256,365.722c-60.595,0-109.722-49.126-109.722-109.722

	S195.405,146.278,256,146.278S365.722,195.405,365.722,256S316.595,365.722,256,365.722z" id="icon-settings"></path>
    <path d="M398.059,199.929L398.059,199.929l90.996-56.071L255.592,0L22.129,143.858l90.996,56.071l0,0L22.129,256l90.996,56.071l0,0

	l-90.996,56.071L255.592,512l233.463-143.858l-90.996-56.071l0,0L489.055,256L398.059,199.929z M255.592,46.984l157.214,96.874

	l-157.214,96.874L98.378,143.858L255.592,46.984z M151.249,223.421L151.249,223.421l104.343,64.295l104.343-64.295l0,0L412.806,256

	l-157.214,96.874L98.378,256L151.249,223.421z M412.806,368.142l-157.214,96.874L98.378,368.142l52.871-32.579l0,0l104.343,64.295

	l104.343-64.295l0,0L412.806,368.142z" id="icon-stack"></path>
    <path d="M0,32v448h128V32H0z M384,64v416h128V64H384z M192,256v224h128V256H192z" id="icon-stats"></path>
  </defs>
</svg>