<?xml version="1.0" encoding="utf-8"?>
<!-- Generator: Adobe Illustrator 17.0.0, SVG Export Plug-In . SVG Version: 6.00 Build 0)  -->
<!DOCTYPE svg PUBLIC "-//W3C//DTD SVG 1.1//EN" "http://www.w3.org/Graphics/SVG/1.1/DTD/svg11.dtd">
<svg version="1.1" id="Layer_1" xmlns="http://www.w3.org/2000/svg" xmlns:xlink="http://www.w3.org/1999/xlink" x="0px" y="0px"
	 width="512px" height="512px" viewBox="0 0 512 512" enable-background="new 0 0 512 512" xml:space="preserve">
<g>
	<path d="M295.574,472c0,22-17.808,40-39.574,40s-39.574-18-39.574-40V40c0-22,17.808-40,39.574-40s39.574,18,39.574,40V472z"/>
	<path d="M295.574,472c0,22-17.808,40-39.574,40s-39.574-18-39.574-40V40c0-22,17.808-40,39.574-40s39.574,18,39.574,40V472z"/>
</g>
<g>
	<path d="M162.66,472c0,22-17.808,40-39.574,40s-39.574-18-39.574-40V40c0-22,17.808-40,39.574-40s39.574,18,39.574,40V472z"/>
	<path d="M162.66,472c0,22-17.808,40-39.574,40s-39.574-18-39.574-40V40c0-22,17.808-40,39.574-40s39.574,18,39.574,40V472z"/>
</g>
<g>
	<path d="M428.488,472c0,22-17.808,40-39.574,40s-39.574-18-39.574-40V40c0-22,17.808-40,39.574-40s39.574,18,39.574,40V472z"/>
	<path d="M428.488,472c0,22-17.808,40-39.574,40s-39.574-18-39.574-40V40c0-22,17.808-40,39.574-40s39.574,18,39.574,40V472z"/>
</g>
</svg>
