<?xml version="1.0" encoding="utf-8"?>
<!-- Generator: Adobe Illustrator 17.0.0, SVG Export Plug-In . SVG Version: 6.00 Build 0)  -->
<!DOCTYPE svg PUBLIC "-//W3C//DTD SVG 1.1//EN" "http://www.w3.org/Graphics/SVG/1.1/DTD/svg11.dtd">
<svg version="1.1" id="Layer_1" xmlns="http://www.w3.org/2000/svg" xmlns:xlink="http://www.w3.org/1999/xlink" x="0px" y="0px"
	 width="512px" height="512px" viewBox="0 0 512 512" enable-background="new 0 0 512 512" xml:space="preserve">
<g>
	<g>
		<path fill="none" d="M137.611,323.886c-7.909,12.258-11.855,25.763-11.848,40.514c0.008,16.568,6.872,31.768,20.605,45.604
			c13.727,13.837,31.312,20.751,52.762,20.741c16.143-0.007,30.765-5.121,45.832-10.948c5.966-2.307,28.413-14.254,36.14-23.126
			l-23.342-28.396l-71.488-86.966C161.737,297.438,145.52,311.629,137.611,323.886z"/>
		<path fill="none" d="M246.741,152.458c11.744-12.265,17.618-25.559,17.612-39.869c-0.005-10.444-3.536-19.754-10.594-27.926
			c-7.058-8.172-17.753-12.258-32.089-12.251c-8.935,0.004-17.279,2.393-25.032,7.167c-11.752,7.049-17.622,18.18-17.615,33.393
			c0.004,9.084,3.296,18.623,9.888,28.611c4.231,6.585,13.4,18.273,27.515,35.073C230.525,167.116,240.63,159.048,246.741,152.458z"
			/>
		<path fill="none" d="M281.101,396.672l-23.342-28.396L281.101,396.672z"/>
	</g>
	<path d="M391.775,390.659L391.775,390.659c16.266-21.15,28.008-40.474,35.234-57.985c13.096-31.15,20.428-61.957,22.003-92.422
		l-86.011,0.039c-0.227,15.41-2.574,30.03-7.04,43.854c-4.466,13.823-10.829,26.628-19.084,38.413l-72.048-87.279
		c27.269-15.698,47.951-32.759,62.041-51.181c14.09-18.418,21.127-42.405,21.114-71.96c-0.015-32.738-11.782-59.616-35.302-80.636
		C289.162,10.487,259.4-0.016,223.39,0c-39.452,0.018-71.558,10.306-96.319,30.852c-24.765,20.553-37.135,49.099-37.118,85.635
		c0.008,18.385,3.979,36.088,11.923,53.103c7.938,17.017,19.165,33.692,33.678,50.023l-10.535,6.464
		c-33.987,21.099-58.455,42.416-73.403,63.958c-14.948,21.541-22.416,47.388-22.402,77.533l0,0l0,0
		c0.017,36.498,14.464,69.702,43.343,99.606c28.879,29.909,68.975,44.849,120.293,44.825c34.134-0.015,63.593-8.127,90.369-20.205
		c8.01-3.613,19.892-10.275,30.549-17.082l-49.614-60.356l-2.607-3.171c-7.027,4.158-13.715,7.503-16.586,8.613
		c-15.066,5.827-29.689,10.941-45.832,10.948c-21.45,0.01-39.036-6.904-52.762-20.741c-13.732-13.837-20.597-29.036-20.605-45.604
		c-0.007-14.751,3.939-28.256,11.848-40.514c7.909-12.258,24.126-26.448,48.66-42.576h0.002l71.487,86.965l23.342,28.396
		l52.388,63.731l32.01,38.94l117.287-0.053L391.775,390.659z M246.741,152.457c-6.112,6.59-15.077,15.796-30.316,24.199
		c-14.115-16.799-23.283-28.487-27.514-35.072c-6.592-9.988-9.884-19.527-9.888-28.611c-0.007-15.213,5.863-26.344,17.615-33.393
		c7.753-4.774,16.097-7.163,25.032-7.167v-0.002c14.336-0.007,25.031,4.079,32.089,12.251s10.589,17.482,10.594,27.926
		C264.359,126.898,258.485,140.192,246.741,152.457z"/>
</g>
</svg>
