<?xml version="1.0" encoding="utf-8"?>
<!-- Generator: Adobe Illustrator 17.0.0, SVG Export Plug-In . SVG Version: 6.00 Build 0)  -->
<!DOCTYPE svg PUBLIC "-//W3C//DTD SVG 1.1//EN" "http://www.w3.org/Graphics/SVG/1.1/DTD/svg11.dtd">
<svg version="1.1" id="Layer_1" xmlns="http://www.w3.org/2000/svg" xmlns:xlink="http://www.w3.org/1999/xlink" x="0px" y="0px"
	 width="512px" height="512px" viewBox="0 0 512 512" enable-background="new 0 0 512 512" xml:space="preserve">
<path d="M245.376,368.875l-73.066,73.094c-13.759,13.73-32.103,21.307-51.673,21.307c-19.37,0-37.544-7.463-51.075-20.994
	c-13.588-13.588-21.051-31.79-20.994-51.246c0.057-19.484,7.606-37.772,21.307-51.474l72.639-72.639l0,0l46.603-46.574
	c20.538-20.51,68.708-11.052,91.012,11.28c0.171,0.171,0.313,0.37,0.484,0.541c10.967,11.195,17.832,25.466,19.855,40.962
	c6.267-2.307,12.078-5.783,16.892-10.597l24.042-24.013c-4.13-10.54-9.799-20.424-16.75-29.483l0.085-0.085
	c-0.256-0.342-0.57-0.627-0.855-0.969c-2.849-3.618-5.868-7.121-9.144-10.426c-0.085-0.085-0.142-0.171-0.228-0.256
	c-2.535-2.535-5.241-4.957-8.09-7.292c-9.999-8.346-21.165-14.955-33.129-19.598l-0.199,0.256
	c-39.766-16.066-88.42-14.613-118.33,15.325l-57.057,57.028l-62.184,62.184C12.705,328.055,0.057,358.506,0,390.923
	c-0.057,32.445,12.42,62.896,35.237,85.685c22.703,22.732,53.04,35.237,85.4,35.237c32.531,0,63.096-12.648,85.998-35.55
	L311.89,371.011c-9.429,1.909-19.142,2.877-29.027,2.877C270.016,373.888,257.454,372.094,245.376,368.875 M484.115,198.074
	c0.769-0.969,1.453-1.965,2.222-2.934c1.652-2.136,3.333-4.273,4.814-6.466c0.57-0.855,1.054-1.738,1.624-2.592
	c1.567-2.421,3.076-4.9,4.444-7.406c0.399-0.741,0.741-1.51,1.139-2.25c1.424-2.763,2.792-5.555,3.988-8.432
	c0.199-0.513,0.399-1.054,0.627-1.567c1.31-3.247,2.478-6.495,3.532-9.828c0.028-0.142,0.085-0.256,0.114-0.427
	c11.195-36.576,5.042-77.538-19.57-109.471l-0.399,0.285c-3.133-4.016-6.409-7.948-10.084-11.622
	c-22.732-22.703-53.069-35.208-85.429-35.208c-32.559,0-63.096,12.619-85.998,35.55l-45.15,45.121l-0.028-0.028l-32.189,32.189
	l-33.243,33.214c-0.57,0.598-1.054,1.225-1.624,1.795c21.535-4.928,44.865-4.102,66.941,1.595l34.838-34.81l44.78-44.723
	c13.73-13.759,32.103-21.336,51.673-21.336c19.37,0,37.544,7.463,51.075,20.994c13.559,13.588,21.022,31.79,20.994,51.246
	c-0.057,17.576-6.238,34.154-17.49,47.286c-1.139,1.339-2.307,2.649-3.561,3.903L334.565,279.743
	c-28.4,28.4-74.49,28.543-102.748,0.313c-14.869-14.927-22.19-34.354-21.991-53.297c-3.789,1.054-6.979,2.735-9.286,5.042
	l-33.3,33.271c2.45,7.549,5.811,14.87,9.771,21.934h-0.427c5.469,10.055,12.363,19.399,20.652,27.688
	c22.732,22.732,53.04,35.208,85.4,35.208c32.559,0,63.067-12.619,85.998-35.522l107.591-107.591
	c2.222-2.222,4.244-4.558,6.267-6.922C483.032,199.242,483.602,198.701,484.115,198.074"/>
</svg>
