<?xml version="1.0" encoding="utf-8"?>
<!-- Generator: Adobe Illustrator 17.0.0, SVG Export Plug-In . SVG Version: 6.00 Build 0)  -->
<!DOCTYPE svg PUBLIC "-//W3C//DTD SVG 1.1//EN" "http://www.w3.org/Graphics/SVG/1.1/DTD/svg11.dtd">
<svg version="1.1" id="Layer_1" xmlns="http://www.w3.org/2000/svg" xmlns:xlink="http://www.w3.org/1999/xlink" x="0px" y="0px"
	 width="512px" height="512px" viewBox="0 0 512 512" enable-background="new 0 0 512 512" xml:space="preserve">
<path d="M384.41,330.972c21.18-34.308,33.231-75.283,32.616-119.129C415.359,93.252,321.691-1.595,207.844,0.02
	C93.997,1.636,3.098,99.073,4.765,217.664s95.334,213.438,209.182,211.823c41.308-0.564,79.591-13.769,111.54-36.026L447.385,512
	l59.872-61.59L384.41,330.972z M212.767,346.87c-67.462,0.949-124.335-56.667-125.386-130.36
	C86.33,142.817,141.587,83.611,209.024,82.662c67.437-0.949,124.335,56.667,125.386,130.36S280.204,345.921,212.767,346.87z"/>
</svg>
