<?xml version="1.0" encoding="utf-8"?>
<!-- Generator: Adobe Illustrator 17.0.0, SVG Export Plug-In . SVG Version: 6.00 Build 0)  -->
<!DOCTYPE svg PUBLIC "-//W3C//DTD SVG 1.1 Tiny//EN" "http://www.w3.org/Graphics/SVG/1.1/DTD/svg11-tiny.dtd">
<svg version="1.1" baseProfile="tiny" id="Layer_1" xmlns="http://www.w3.org/2000/svg" xmlns:xlink="http://www.w3.org/1999/xlink"
	 x="0px" y="0px" width="512px" height="512px" viewBox="0 0 512 512" xml:space="preserve">
<path d="M512,310.861V201.139h-62.618c-4.301-15.181-10.24-29.645-17.792-43.136l44.237-44.237l-77.568-77.568l-44.237,44.237
	c-13.491-7.552-27.955-13.491-43.136-17.792V0H201.139v62.618c-15.181,4.301-29.645,10.24-43.136,17.792l-44.237-44.211
	l-77.568,77.568l44.237,44.237c-7.552,13.491-13.517,27.955-17.818,43.136H0v109.722h62.618
	c4.301,15.181,10.24,29.645,17.792,43.136l-44.237,44.237l77.568,77.568l44.237-44.237c13.491,7.552,27.955,13.491,43.136,17.792
	V512h109.722v-62.618c15.181-4.301,29.645-10.24,43.136-17.792l44.237,44.237l77.568-77.568l-44.237-44.237
	c7.552-13.491,13.491-27.955,17.792-43.136H512V310.861z M256,365.722c-60.595,0-109.722-49.126-109.722-109.722
	S195.405,146.278,256,146.278S365.722,195.405,365.722,256S316.595,365.722,256,365.722z"/>
</svg>
