<?xml version="1.0" encoding="utf-8"?>
<!-- Generator: Adobe Illustrator 17.0.0, SVG Export Plug-In . SVG Version: 6.00 Build 0)  -->
<!DOCTYPE svg PUBLIC "-//W3C//DTD SVG 1.1//EN" "http://www.w3.org/Graphics/SVG/1.1/DTD/svg11.dtd">
<svg version="1.1" id="Layer_1" xmlns="http://www.w3.org/2000/svg" xmlns:xlink="http://www.w3.org/1999/xlink" x="0px" y="0px"
	 width="512px" height="512px" viewBox="0 0 512 512" enable-background="new 0 0 512 512" xml:space="preserve">
<path d="M398.059,199.929L398.059,199.929l90.996-56.071L255.592,0L22.129,143.858l90.996,56.071l0,0L22.129,256l90.996,56.071l0,0
	l-90.996,56.071L255.592,512l233.463-143.858l-90.996-56.071l0,0L489.055,256L398.059,199.929z M255.592,46.984l157.214,96.874
	l-157.214,96.874L98.378,143.858L255.592,46.984z M151.249,223.421L151.249,223.421l104.343,64.295l104.343-64.295l0,0L412.806,256
	l-157.214,96.874L98.378,256L151.249,223.421z M412.806,368.142l-157.214,96.874L98.378,368.142l52.871-32.579l0,0l104.343,64.295
	l104.343-64.295l0,0L412.806,368.142z"/>
</svg>
