<?xml version="1.0" encoding="utf-8"?>
<!-- Generator: Adobe Illustrator 17.0.0, SVG Export Plug-In . SVG Version: 6.00 Build 0)  -->
<!DOCTYPE svg PUBLIC "-//W3C//DTD SVG 1.1//EN" "http://www.w3.org/Graphics/SVG/1.1/DTD/svg11.dtd">
<svg version="1.1" id="Layer_1" xmlns="http://www.w3.org/2000/svg" xmlns:xlink="http://www.w3.org/1999/xlink" x="0px" y="0px"
	 width="512px" height="512px" viewBox="0 0 512 512" enable-background="new 0 0 512 512" xml:space="preserve">
<g>
	<g>
		<path id="user-icon_5_" d="M344.258,398.006c-56.757-13.092-109.581-24.554-84.004-72.79
			c77.884-146.831,20.644-225.35-61.596-225.35c-83.859,0-139.687,81.53-61.596,225.35c26.353,48.527-28.467,59.984-84.004,72.79
			c-41.646,9.603-50.363,31.279-52.054,63.602C0.392,473.311,69.224,510,198.659,510s198.227-40.119,197.767-50.688
			C395.03,427.213,386.93,407.846,344.258,398.006z"/>
		<g>
			<g>
				<path d="M260.233,118.703c4.175,23.005,13.582,49.225,29.452,78.452c22.589,41.595-24.4,51.415-72.004,62.392
					c-35.697,8.232-43.168,26.81-44.618,54.516c-0.525,10.032,58.474,123.019,169.42,123.019c13.965,0,32.168,0.845,51.449,1.556
					c-4.678-20.045-17.096-33.119-49.673-40.631c-56.757-13.092-109.581-24.553-84.005-72.79
					C315.981,220.155,302.523,150.077,260.233,118.703z"/>
			</g>
			<g>
				<path d="M511.998,322.095c-1.197-27.513-23.348-57.66-59.924-66.095c-48.649-11.222-78.719-17.499-56.796-58.845
					C462.036,71.299,412.974,3.996,342.482,3.996c-40.331,0-73.093,22.004-82.263,63.092c25.42,10.978,46.475,29.055,60.925,53.078
					c8.47,14.08,14.467,29.924,17.826,47.093c3.299,16.862,4.052,35.087,2.238,54.17c-3.466,36.453-16.271,76.424-38.079,118.892
					c2.206,0.866,4.892,1.83,8.146,2.87c11.605,3.707,25.821,6.984,40.872,10.454l2.222,0.512
					c31.054,7.161,53.133,19.991,67.501,39.223c11.101,14.86,15.84,31.264,17.957,46.208C478.859,425.341,512,395.357,512,379.082
					C512,357.412,512.202,326.779,511.998,322.095z"/>
			</g>
		</g>
	</g>
</g>
</svg>
