<?xml version="1.0" encoding="utf-8"?>
<!-- Generator: Adobe Illustrator 17.0.0, SVG Export Plug-In . SVG Version: 6.00 Build 0)  -->
<!DOCTYPE svg PUBLIC "-//W3C//DTD SVG 1.1//EN" "http://www.w3.org/Graphics/SVG/1.1/DTD/svg11.dtd">
<svg version="1.1" id="Layer_1" xmlns="http://www.w3.org/2000/svg" xmlns:xlink="http://www.w3.org/1999/xlink" x="0px" y="0px"
	 width="512px" height="512px" viewBox="0 0 512 512" enable-background="new 0 0 512 512" xml:space="preserve">
<path id="user-icon" d="M375.686,363.481c-47.758-11.017-92.208-20.661-70.686-61.25c65.535-123.552,17.371-189.622-51.83-189.622
	c-70.564,0-117.54,68.604-51.83,189.622c22.175,40.833-23.953,50.474-70.686,61.25c-35.043,8.081-42.378,26.319-43.801,53.518
	c-0.515,9.848,166.318,65.964,166.318,65.964s166.798-59.002,166.411-67.895C418.408,388.058,411.592,371.761,375.686,363.481z"/>
<path d="M254.671,48.671c55.38,0,107.444,21.566,146.604,60.725C440.434,148.556,462,200.62,462,256
	c0,55.379-21.566,107.444-60.725,146.603c-39.159,39.159-91.224,60.725-146.604,60.725c-55.379,0-107.444-21.566-146.603-60.725
	S47.343,311.379,47.343,256c0-55.38,21.566-107.444,60.725-146.604C147.227,70.237,199.292,48.671,254.671,48.671 M254.671-1.329
	C112.553-1.329-2.657,113.881-2.657,256c0,142.119,115.21,257.329,257.329,257.329C396.79,513.329,512,398.119,512,256
	C512,113.881,396.79-1.329,254.671-1.329L254.671-1.329z"/>
</svg>
