<svg xmlns="http://www.w3.org/2000/svg" width="1823.999" height="679.182"><path fill="#FEE01A" d="M473.106 514.407l-.19-.235c20.439-26.703 36.376-52.154 45.527-74.302 16.857-40.045 26.303-79.652 28.345-118.823H436.197c-.301 19.814-3.327 38.611-9.077 56.383-5.423 16.756-14.543 34.791-24.47 49.494l-.091-.113-92.294-112.439c34.924-20.121 61.432-41.987 79.508-65.6 18.127-23.673 27.19-54.511 27.19-92.513 0-42.094-15.115-76.661-45.344-103.702-30.23-27.034-68.492-40.556-114.793-40.556-50.727 0-92.015 13.209-123.864 39.614-31.856 26.413-47.777 63.11-47.777 110.087 0 23.639 5.096 46.404 15.3 68.286 10.197 21.885 24.622 43.331 43.275 64.34l-13.551 8.306c-43.713 27.109-75.186 54.504-94.419 82.193-19.234 27.689-28.85 60.917-28.85 99.678l.383-.012-.381.012c0 46.929 18.557 89.631 55.672 128.098 37.115 38.474 88.661 57.707 154.646 57.707 43.89 0 81.772-10.412 116.208-25.927 18.006-8.113 51.242-28.194 64.654-40.333l41.136 50.087h150.807l-116.959-139.73zM222.381 114.308c9.972-6.134 20.701-9.2 32.191-9.2 18.434 0 32.182 5.259 41.253 15.771 9.071 10.511 13.605 22.484 13.605 35.913 0 18.4-7.56 35.489-22.668 51.253-7.861 8.469-19.395 20.302-38.994 31.097-18.14-21.61-29.922-36.644-35.359-45.113-8.469-12.846-12.697-25.114-12.697-36.794 0-19.562 7.553-33.87 22.669-42.927zm61.936 437.48c-19.376 7.483-38.18 14.05-58.936 14.05-27.58 0-50.188-8.899-67.829-26.699-17.649-17.799-26.467-37.347-26.467-58.65h-.002c.002-18.963 5.084-36.332 15.258-52.086 10.177-15.756 31.036-33.993 62.592-54.716l.29-.17 121.576 148.557c-9.94 11.402-38.81 26.75-46.482 29.714z" class="_x26_"/><path fill="url(#a)" d="M143.76 294.328c-18.653-21.009-33.078-42.455-43.275-64.34-10.204-21.883-15.3-44.648-15.3-68.287 0-46.977 15.921-83.675 47.777-110.087C164.81 25.21 206.098 12 256.826 12l-2.254 93.107c-11.489 0-22.219 3.066-32.191 9.2-15.115 9.057-22.668 23.365-22.668 42.927 0 11.68 4.227 23.947 12.697 36.793 5.437 8.469 17.219 23.503 35.359 45.113L143.76 294.328z"/><polygon opacity=".5" fill="url(#b)" points="208.935,373.688 300.802,485.549 330.799,522.074 330.799,522.074 398.121,604.049 439.257,654.137 590.064,654.137 473.106,514.407 402.559,426.811 309.971,314.545"/><path opacity=".5" fill="url(#c)" d="M143.76 294.328c-18.653-21.009-33.078-42.455-43.275-64.34-10.204-21.883-15.3-44.648-15.3-68.287 0-46.977 15.921-83.675 47.777-110.087C164.81 25.21 206.098 12 256.826 12l-2.254 93.107c-11.489 0-22.219 3.066-32.191 9.2-15.115 9.057-22.668 23.365-22.668 42.927 0 11.68 4.227 23.947 12.697 36.793 5.437 8.469 17.219 23.503 35.359 45.113L143.76 294.328z"/><path fill="url(#d)" d="M518.444 439.87c16.857-40.045 26.303-79.652 28.345-118.823H436.197c-.301 19.814-3.327 38.611-9.077 56.383-5.751 17.771-13.94 34.233-24.561 49.381l70.548 87.596c20.926-27.184 36.035-52.025 45.337-74.537z"/><path fill="url(#e)" d="M6.941 484.505c0 46.929 18.557 89.631 55.672 128.098 37.115 38.474 88.661 57.707 154.646 57.707 43.89 0 81.772-10.412 116.208-25.927 18.006-8.113 51.243-28.194 64.655-40.334l-67.323-81.975c-9.94 11.402-38.81 26.75-46.482 29.714-19.376 7.483-38.18 14.05-58.936 14.05-27.58 0-50.188-8.899-67.829-26.699-17.649-17.799-26.467-37.347-26.467-58.65L6.941 484.505z"/><path fill="url(#f)" d="M518.444 439.87c16.857-40.045 26.303-79.652 28.345-118.823H436.197c-.301 19.814-3.327 38.611-9.077 56.383-5.751 17.771-13.94 34.233-24.561 49.381l70.548 87.596c20.926-27.184 36.035-52.025 45.337-74.537z"/><path fill="url(#g)" d="M6.941 484.505c0 46.929 18.557 89.631 55.672 128.098 37.115 38.474 88.661 57.707 154.646 57.707 43.89 0 81.772-10.412 116.208-25.927 18.006-8.113 51.243-28.194 64.655-40.334l-67.323-81.975c-9.94 11.402-38.81 26.75-46.482 29.714-19.376 7.483-38.18 14.05-58.936 14.05-27.58 0-50.188-8.899-67.829-26.699-17.649-17.799-26.467-37.347-26.467-58.65L6.941 484.505z"/><polygon fill="url(#h)" points="207.269,371.126 300.802,485.549 330.799,522.074 330.799,522.074 398.121,604.049 439.257,654.137 590.064,654.137 473.106,514.407 402.559,426.811 308.304,311.983"/><path d="M734.212 131.958v146.526h-48.196V131.958h-20.021V96.317h20.021V72.916c0-26.642 17.054-53.643 56.353-53.643h27.436v39.602h-18.908c-11.493 0-16.684 6.121-16.684 16.921v20.521h35.592v35.642h-35.593z"/><g><path d="M940.341 257.604c-11.863 12.24-31.512 23.041-60.059 23.041-28.548 0-47.826-10.801-59.69-23.041-17.425-17.641-21.873-38.882-21.873-73.083 0-33.841 4.448-55.082 21.873-72.723 11.864-12.24 31.143-23.041 59.69-23.041 28.547 0 48.196 10.801 60.059 23.041 17.426 17.641 21.875 38.882 21.875 72.723 0 34.201-4.449 55.442-21.875 73.083zm-37.444-118.446c-5.562-5.4-12.977-8.28-22.615-8.28-9.64 0-16.684 2.88-22.245 8.28-10.01 9.721-11.122 25.921-11.122 45.362 0 19.441 1.112 36.002 11.122 45.722 5.562 5.4 12.605 8.28 22.245 8.28 9.639 0 17.054-2.88 22.615-8.28 10.01-9.72 11.122-26.281 11.122-45.722 0-19.44-1.111-35.641-11.122-45.362z"/></g><g><path d="M1105.695 142.039c-7.414-7.201-13.717-11.161-25.58-11.161-14.83 0-31.143 10.8-31.143 34.562v113.045h-48.197V90.916h47.084v18.001c9.27-10.801 27.807-20.161 48.568-20.161 18.908 0 32.254 4.68 45.602 17.641l-36.334 35.642zM1394.128 278.485V165.08c0-25.562-16.684-34.202-31.883-34.202-14.83 0-32.256 8.64-32.256 33.122v114.485h-48.195V165.08c0-25.562-16.684-34.202-31.885-34.202-15.199 0-32.254 8.64-32.254 34.202v113.405h-48.197V90.916h47.084v17.281c12.605-12.601 30.402-19.441 48.197-19.441 21.504 0 38.928 7.561 51.162 23.761 16.312-16.561 33.738-23.761 57.836-23.761 19.279 0 36.703 6.121 47.455 16.561 15.572 15.121 21.133 32.761 21.133 53.282v119.885h-48.197z"/></g><g><path d="M741.48 574.414c-30.4 0-57.836-3.24-82.305-27.001l31.514-30.602c15.941 15.48 36.703 17.641 51.533 17.641 16.683 0 34.108-5.4 34.108-19.44 0-9.36-5.19-15.841-20.392-17.281l-30.4-2.88c-34.85-3.24-56.354-18.001-56.354-52.562 0-38.882 35.221-59.763 74.52-59.763 30.03 0 55.241 5.04 73.778 21.961l-29.66 29.161c-11.122-9.72-28.176-12.601-44.859-12.601-19.278 0-27.436 8.641-27.436 18.001 0 6.841 2.967 14.761 20.021 16.201l30.401 2.88c38.187 3.601 57.465 23.401 57.465 55.082.001 41.402-36.332 61.203-81.934 61.203z"/></g><g><path d="M935.748 602.495c-4.078 10.44-8.527 18.361-14.459 24.121-11.123 10.801-25.582 14.4-41.524 14.4h-18.907v-42.121h11.122c13.718 0 19.278-3.24 24.099-16.921l8.156-23.041-65.992-174.248h50.791l40.041 115.925 38.557-115.925h50.793l-82.677 217.81z"/></g><g><path d="M1095.535 574.414c-30.4 0-57.836-3.24-82.305-27.001l31.514-30.602c15.941 15.48 36.703 17.641 51.533 17.641 16.682 0 34.107-5.4 34.107-19.44 0-9.36-5.189-15.841-20.391-17.281l-30.4-2.88c-34.85-3.24-56.354-18.001-56.354-52.562 0-38.882 35.221-59.763 74.52-59.763 30.029 0 55.24 5.04 73.777 21.961l-29.66 29.161c-11.121-9.72-28.176-12.601-44.859-12.601-19.277 0-27.436 8.641-27.436 18.001 0 6.841 2.967 14.761 20.021 16.201l30.4 2.88c38.188 3.601 57.465 23.401 57.465 55.082.001 41.402-36.331 61.203-81.932 61.203zM1274.603 572.254c-39.299 0-55.982-27.001-55.982-53.643v-92.884h-20.391v-35.642h20.391v-55.442h48.197v55.442h34.107v35.642h-34.107v90.004c0 10.801 5.189 16.921 16.684 16.921h17.424v39.602h-26.323z"/></g><g><path d="M1386.191 493.051c0 24.121 15.199 41.762 42.264 41.762 21.133 0 31.514-5.761 43.748-17.641l29.289 27.721c-19.65 19.081-38.557 29.521-73.408 29.521-45.6 0-89.348-20.161-89.348-96.124 0-61.203 34.107-95.765 84.158-95.765 53.758 0 84.158 38.161 84.158 89.645v20.881h-120.861zm68.957-52.203c-5.189-11.16-15.941-19.44-32.254-19.44s-27.064 8.28-32.254 19.44c-2.967 6.841-4.078 11.881-4.449 20.161h73.406c-.371-8.28-1.482-13.32-4.449-20.161z"/></g><g><path d="M1768.792 572.254V458.849c0-25.561-16.684-34.201-31.885-34.201-14.83 0-32.254 8.641-32.254 33.121v114.485h-48.197V458.849c0-25.561-16.684-34.201-31.883-34.201-15.201 0-32.256 8.641-32.256 34.201v113.405h-48.195V384.686h47.084v17.28c12.605-12.601 30.4-19.44 48.195-19.44 21.504 0 38.93 7.561 51.164 23.761 16.312-16.561 33.736-23.761 57.836-23.761 19.277 0 36.703 6.12 47.455 16.561 15.57 15.121 21.131 32.762 21.131 53.282v119.886h-48.195z"/></g></svg>