<svg xmlns="http://www.w3.org/2000/svg" style="display:none"><symbol id="svg-icon--checkmark-outline" viewbox="0 0 20 20"><path d="M2.929 17.071c3.905 3.905 10.237 3.905 14.142 0 3.905-3.905 3.905-10.237 0-14.142-3.905-3.905-10.237-3.905-14.142 0-3.905 3.905-3.905 10.237 0 14.142zm12.728-1.414A8 8 0 1 0 4.343 4.343a8 8 0 0 0 11.314 11.314zM4 10l2-2 3 3 5-5 2 2-7 7-5-5z" fill="#000" fill-rule="evenodd"/></symbol><symbol id="svg-icon--close-outline" viewbox="0 0 20 20"><path d="M11.414 10l2.829-2.828-1.415-1.415L10 8.586 7.172 5.757 5.757 7.172 8.586 10l-2.829 2.828 1.415 1.415L10 11.414l2.828 2.829 1.415-1.415L11.414 10zM2.93 17.071c3.905 3.905 10.237 3.905 14.142 0 3.905-3.905 3.905-10.237 0-14.142-3.905-3.905-10.237-3.905-14.142 0-3.905 3.905-3.905 10.237 0 14.142zm1.414-1.414A8 8 0 1 0 15.657 4.343 8 8 0 0 0 4.343 15.657z" fill="#000" fill-rule="evenodd"/></symbol><symbol id="svg-icon--exclamation-outline" viewbox="0 0 20 20"><path d="M2.929 17.071c3.905 3.905 10.237 3.905 14.142 0 3.905-3.905 3.905-10.237 0-14.142-3.905-3.905-10.237-3.905-14.142 0-3.905 3.905-3.905 10.237 0 14.142zm12.728-1.414A8 8 0 1 0 4.343 4.343a8 8 0 0 0 11.314 11.314zM9 5h2v6H9V5zm0 8h2v2H9v-2z" fill="#000" fill-rule="evenodd"/></symbol><symbol id="svg-icon--information-outline" viewbox="0 0 20 20"><path d="M2.929 17.071c3.905 3.905 10.237 3.905 14.142 0 3.905-3.905 3.905-10.237 0-14.142-3.905-3.905-10.237-3.905-14.142 0-3.905 3.905-3.905 10.237 0 14.142zm12.728-1.414A8 8 0 1 0 4.343 4.343a8 8 0 0 0 11.314 11.314zM9 11V9h2v6H9v-4zm0-6h2v2H9V5z" fill="#000" fill-rule="evenodd"/></symbol></svg>