<svg xmlns="http://www.w3.org/2000/svg" width="20" height="20"><path d="M0 0v9h9V0H0zm7 7H2V2h5v5z" class="bottom-right"/><path d="M0 11v9h9v-9H0zm7 7H2v-5h5v5z" class="bottom-left"/><path d="M11 0v9h9V0h-9zm7 7h-5V2h5v5z" class="top-right"/><path d="M11 11v9h9v-9h-9zm7 7h-5v-5h5v5z" class="top-left"/><rect x="11" y="11" fill="none" width="9" height="9" class="fill-bottom-right"/><rect y="11" fill="none" width="9" height="9" class="fill-bottom-left"/><rect x="11" fill="none" width="9" height="9" class="fill-top-right"/><rect fill="none" width="9" height="9" class="fill-top-left"/></svg>