<svg width="20" height="20" xmlns="http://www.w3.org/2000/svg"><path d="M17.561 12.143a7.81 7.81 0 0 1-.7 1.688l1.725 1.725-3.03 3.03-1.725-1.725a7.81 7.81 0 0 1-1.688.7V20H7.857v-2.439a7.81 7.81 0 0 1-1.688-.7l-1.725 1.725-3.03-3.03 1.725-1.725a7.81 7.81 0 0 1-.7-1.688H0V7.857h2.439a7.81 7.81 0 0 1 .7-1.688L1.414 4.444l3.03-3.03L6.17 3.139a7.81 7.81 0 0 1 1.688-.7V0h4.286v2.439a7.81 7.81 0 0 1 1.688.7l1.725-1.725 3.03 3.03-1.725 1.725a7.81 7.81 0 0 1 .7 1.688H20v4.286h-2.439zM10 14.286a4.286 4.286 0 1 0 0-8.572 4.286 4.286 0 0 0 0 8.572z" class="Settings-2" fill="#000" fill-rule="evenodd"/></svg>