<svg xmlns="http://www.w3.org/2000/svg" style="display:none"><symbol id="svg-icon--arrow-back" viewbox="0 0 512 512"><path d="M490 231H90v50h400v-50z"/><path d="M164.355 114.579L22.934 256l35.355 35.355L199.71 149.934l-35.355-35.355z"/><path d="M199.711 362.066L58.289 220.645 22.934 256l141.421 141.421 35.356-35.355z"/></symbol><symbol id="svg-icon--eye-closed" viewbox="0 0 512 512"><path d="M253.875 102.4C94.822 102.4 0 250.982 0 250.982S96.947 409.6 256 409.6s256-160 256-160-99.072-147.2-258.125-147.2zm.973 243.2c-49.485 0-89.6-40.115-89.6-89.6s40.115-89.6 89.6-89.6 89.6 40.115 89.6 89.6-40.115 89.6-89.6 89.6z"/></symbol><symbol id="svg-icon--eye" viewbox="0 0 512 512"><path d="M253.255 97.425C94.591 97.425 0 245.644 0 245.644s96.71 158.231 255.375 158.231S510.75 244.266 510.75 244.266 411.92 97.425 253.255 97.425zm.971 242.606c-49.364 0-89.382-40.018-89.382-89.381 0-49.364 40.018-89.382 89.382-89.382s89.381 40.017 89.381 89.382-40.017 89.381-89.381 89.381zm1.149-140.303c28.123 0 50.922 22.799 50.922 50.922s-22.799 50.922-50.922 50.922-50.922-22.799-50.922-50.922 22.799-50.922 50.922-50.922z"/></symbol><symbol id="svg-icon--formandsystem-font" viewbox="0 0 1823.999 679.182"><path fill="#FEE01A" d="M473.106 514.407l-.19-.235c20.439-26.703 36.376-52.154 45.527-74.302 16.857-40.045 26.303-79.652 28.345-118.823H436.197c-.301 19.814-3.327 38.611-9.077 56.383-5.423 16.756-14.543 34.791-24.47 49.494l-.091-.113-92.294-112.439c34.924-20.121 61.432-41.987 79.508-65.6 18.127-23.673 27.19-54.511 27.19-92.513 0-42.094-15.115-76.661-45.344-103.702-30.23-27.034-68.492-40.556-114.793-40.556-50.727 0-92.015 13.209-123.864 39.614-31.856 26.413-47.777 63.11-47.777 110.087 0 23.639 5.096 46.404 15.3 68.286 10.197 21.885 24.622 43.331 43.275 64.34l-13.551 8.306c-43.713 27.109-75.186 54.504-94.419 82.193-19.234 27.689-28.85 60.917-28.85 99.678l.383-.012-.381.012c0 46.929 18.557 89.631 55.672 128.098 37.115 38.474 88.661 57.707 154.646 57.707 43.89 0 81.772-10.412 116.208-25.927 18.006-8.113 51.242-28.194 64.654-40.333l41.136 50.087h150.807l-116.959-139.73zM222.381 114.308c9.972-6.134 20.701-9.2 32.191-9.2 18.434 0 32.182 5.259 41.253 15.771 9.071 10.511 13.605 22.484 13.605 35.913 0 18.4-7.56 35.489-22.668 51.253-7.861 8.469-19.395 20.302-38.994 31.097-18.14-21.61-29.922-36.644-35.359-45.113-8.469-12.846-12.697-25.114-12.697-36.794 0-19.562 7.553-33.87 22.669-42.927zm61.936 437.48c-19.376 7.483-38.18 14.05-58.936 14.05-27.58 0-50.188-8.899-67.829-26.699-17.649-17.799-26.467-37.347-26.467-58.65h-.002c.002-18.963 5.084-36.332 15.258-52.086 10.177-15.756 31.036-33.993 62.592-54.716l.29-.17 121.576 148.557c-9.94 11.402-38.81 26.75-46.482 29.714z"/><lineargradient id="a" gradientunits="userSpaceOnUse" x1="380.738" y1="107.34" x2="543.803" y2="183.379" gradienttransform="matrix(1 0 0 -1 -267.5 289.182)"><stop offset="0" stop-color="#fecd27"/><stop offset="1" stop-color="#fee01a"/></lineargradient><path fill="url(#a)" d="M143.76 294.328c-18.653-21.009-33.078-42.455-43.275-64.34-10.204-21.883-15.3-44.648-15.3-68.287 0-46.977 15.921-83.675 47.777-110.087C164.81 25.21 206.098 12 256.826 12l-2.254 93.107c-11.489 0-22.219 3.066-32.191 9.2-15.115 9.057-22.668 23.365-22.668 42.927 0 11.68 4.227 23.947 12.697 36.793 5.437 8.469 17.219 23.503 35.359 45.113L143.76 294.328z"/><lineargradient id="b" gradientunits="userSpaceOnUse" x1="510.608" y1="-49.991" x2="620.029" y2="-170.78" gradienttransform="matrix(1 0 0 -1 -267.5 289.182)"><stop offset="0" stop-color="#e1af1f"/><stop offset=".141" stop-color="#e1af1f" stop-opacity=".859"/><stop offset="1" stop-color="#e1af1f" stop-opacity="0"/></lineargradient><path opacity=".5" fill="url(#b)" d="M208.935 373.688l91.867 111.861 29.997 36.525 67.322 81.975 41.136 50.088h150.807l-116.958-139.73-70.547-87.596-92.588-112.266z"/><lineargradient id="c" gradientunits="userSpaceOnUse" x1="517.627" y1="47.869" x2="466.47" y2="133.132" gradienttransform="matrix(1 0 0 -1 -267.5 289.182)"><stop offset="0" stop-color="#e1af1f"/><stop offset=".141" stop-color="#e1af1f" stop-opacity=".859"/><stop offset="1" stop-color="#e1af1f" stop-opacity="0"/></lineargradient><path opacity=".5" fill="url(#c)" d="M143.76 294.328c-18.653-21.009-33.078-42.455-43.275-64.34-10.204-21.883-15.3-44.648-15.3-68.287 0-46.977 15.921-83.675 47.777-110.087C164.81 25.21 206.098 12 256.826 12l-2.254 93.107c-11.489 0-22.219 3.066-32.191 9.2-15.115 9.057-22.668 23.365-22.668 42.927 0 11.68 4.227 23.947 12.697 36.793 5.437 8.469 17.219 23.503 35.359 45.113L143.76 294.328z"/><lineargradient id="d" gradientunits="userSpaceOnUse" x1="676.544" y1="-177.954" x2="744.754" y2="-104.059" gradienttransform="matrix(1 0 0 -1 -267.5 289.182)"><stop offset="0" stop-color="#e1af1f"/><stop offset=".141" stop-color="#e1af1f" stop-opacity=".859"/><stop offset="1" stop-color="#e1af1f" stop-opacity="0"/></lineargradient><path fill="url(#d)" d="M518.444 439.87c16.857-40.045 26.303-79.652 28.345-118.823H436.197c-.301 19.814-3.327 38.611-9.077 56.383-5.751 17.771-13.94 34.233-24.561 49.381l70.548 87.596c20.926-27.184 36.035-52.025 45.337-74.537z"/><lineargradient id="e" gradientunits="userSpaceOnUse" x1="672.389" y1="-302.745" x2="399.42" y2="-283.657" gradienttransform="matrix(1 0 0 -1 -267.5 289.182)"><stop offset="0" stop-color="#e1af1f"/><stop offset=".141" stop-color="#e1af1f" stop-opacity=".859"/><stop offset="1" stop-color="#e1af1f" stop-opacity="0"/></lineargradient><path fill="url(#e)" d="M6.941 484.505c0 46.929 18.557 89.631 55.672 128.098 37.115 38.474 88.661 57.707 154.646 57.707 43.89 0 81.772-10.412 116.208-25.927 18.006-8.113 51.243-28.194 64.655-40.334l-67.323-81.975c-9.94 11.402-38.81 26.75-46.482 29.714-19.376 7.483-38.18 14.05-58.936 14.05-27.58 0-50.188-8.899-67.829-26.699-17.649-17.799-26.467-37.347-26.467-58.65L6.941 484.505z"/><lineargradient id="f" gradientunits="userSpaceOnUse" x1="676.544" y1="-177.954" x2="744.754" y2="-104.059" gradienttransform="matrix(1 0 0 -1 -267.5 289.182)"><stop offset="0" stop-color="#e1af1f"/><stop offset=".092" stop-color="#f5c318"/><stop offset="1" stop-color="#fee01a"/></lineargradient><path fill="url(#f)" d="M518.444 439.87c16.857-40.045 26.303-79.652 28.345-118.823H436.197c-.301 19.814-3.327 38.611-9.077 56.383-5.751 17.771-13.94 34.233-24.561 49.381l70.548 87.596c20.926-27.184 36.035-52.025 45.337-74.537z"/><lineargradient id="g" gradientunits="userSpaceOnUse" x1="672.389" y1="-302.745" x2="399.42" y2="-283.657" gradienttransform="matrix(1 0 0 -1 -267.5 289.182)"><stop offset="0" stop-color="#e1af1f"/><stop offset=".092" stop-color="#f5c318"/><stop offset="1" stop-color="#fee01a"/></lineargradient><path fill="url(#g)" d="M6.941 484.505c0 46.929 18.557 89.631 55.672 128.098 37.115 38.474 88.661 57.707 154.646 57.707 43.89 0 81.772-10.412 116.208-25.927 18.006-8.113 51.243-28.194 64.655-40.334l-67.323-81.975c-9.94 11.402-38.81 26.75-46.482 29.714-19.376 7.483-38.18 14.05-58.936 14.05-27.58 0-50.188-8.899-67.829-26.699-17.649-17.799-26.467-37.347-26.467-58.65L6.941 484.505z"/><lineargradient id="h" gradientunits="userSpaceOnUse" x1="857.564" y1="-193.878" x2="474.769" y2="-193.878" gradienttransform="matrix(1 0 0 -1 -267.5 289.182)"><stop offset="0" stop-color="#fee01a"/><stop offset="1" stop-color="#fecd27"/></lineargradient><path fill="url(#h)" d="M207.269 371.126l93.533 114.423 29.997 36.525 67.322 81.975 41.136 50.088h150.807l-116.958-139.73-70.547-87.596-94.255-114.828z"/><text transform="matrix(1.0298 0 0 1 653.019 278.484)" fill="#060709" font-family="&apos;DINPro-Bold&apos;" font-size="360.016">f</text><text transform="matrix(1.0298 0 0 1 779.81 278.484)" fill="#060709" font-family="&apos;DINPro-Bold&apos;" font-size="360.016" letter-spacing="-5.826">o</text><text transform="matrix(1.0298 0 0 1 973.71 278.484)" fill="#060709" font-family="&apos;DINPro-Bold&apos;" font-size="360.016">rm</text><text transform="matrix(1.0298 0 0 1 651.019 572.254)" fill="#060709" font-family="&apos;DINPro-Bold&apos;" font-size="360.016">s</text><text transform="matrix(1.0298 0 0 1 836.759 572.254)" fill="#060709" font-family="&apos;DINPro-Bold&apos;" font-size="360.016" letter-spacing="-12.624">y</text><text transform="matrix(1.0298 0 0 1 1005.072 572.254)" fill="#060709" font-family="&apos;DINPro-Bold&apos;" font-size="360.016">st</text><text transform="matrix(1.0298 0 0 1 1321.31 572.254)" fill="#060709" font-family="&apos;DINPro-Bold&apos;" font-size="360.016" letter-spacing="-5.826">e</text><text transform="matrix(1.0298 0 0 1 1517.058 572.254)" fill="#060709" font-family="&apos;DINPro-Bold&apos;" font-size="360.016">m</text></symbol><symbol id="svg-icon--formandsystem" viewbox="0 0 512 512"><path d="M391.775 390.659c16.266-21.15 28.008-40.474 35.234-57.985 13.096-31.15 20.428-61.957 22.003-92.422l-86.011.039c-.227 15.41-2.574 30.03-7.04 43.854-4.466 13.823-10.829 26.628-19.084 38.413l-72.048-87.279c27.269-15.698 47.951-32.759 62.041-51.181 14.09-18.418 21.127-42.405 21.114-71.96-.015-32.738-11.782-59.616-35.302-80.636C289.162 10.487 259.4-.016 223.39 0c-39.452.018-71.558 10.306-96.319 30.852-24.765 20.553-37.135 49.099-37.118 85.635.008 18.385 3.979 36.088 11.923 53.103 7.938 17.017 19.165 33.692 33.678 50.023l-10.535 6.464c-33.987 21.099-58.455 42.416-73.403 63.958-14.948 21.541-22.416 47.388-22.402 77.533.017 36.498 14.464 69.702 43.343 99.606 28.879 29.909 68.975 44.849 120.293 44.825 34.134-.015 63.593-8.127 90.369-20.205 8.01-3.613 19.892-10.275 30.549-17.082l-49.614-60.356-2.607-3.171c-7.027 4.158-13.715 7.503-16.586 8.613-15.066 5.827-29.689 10.941-45.832 10.948-21.45.01-39.036-6.904-52.762-20.741-13.732-13.837-20.597-29.036-20.605-45.604-.007-14.751 3.939-28.256 11.848-40.514 7.909-12.258 24.126-26.448 48.66-42.576h.002l71.487 86.965 23.342 28.396 52.388 63.731 32.01 38.94 117.287-.053-91.011-108.631zM246.741 152.458c-6.111 6.59-16.216 14.658-30.315 24.198-14.115-16.8-23.284-28.488-27.515-35.073-6.592-9.988-9.884-19.527-9.888-28.611-.007-15.213 5.863-26.344 17.615-33.393 7.753-4.774 16.097-7.163 25.032-7.167 14.336-.007 25.031 4.079 32.089 12.251s10.589 17.482 10.594 27.926c.006 14.31-5.868 27.604-17.612 39.869zM281.101 396.672l-23.342-28.396 23.342 28.396z"/></symbol><symbol id="svg-icon--page-2" viewbox="0 0 512 512"><path d="M338.067 0H28.445v512h455.111V145.489L338.067 0zm88.6 455.111H85.334V56.889h232.733v108.6h108.6v289.622z"/></symbol><symbol id="svg-icon--page" viewbox="0 0 512 512"><path d="M284.444 398.222H142.222v-56.889h142.222v56.889zm85.333-113.778H142.222v-56.889h227.556l-.001 56.889zm0-113.777H142.222v-56.889h227.556l-.001 56.889z"/><path d="M483.555 512H28.445V0h455.111v512h-.001zM85.334 455.111h341.333V56.889H85.334v398.222z"/></symbol><symbol id="svg-icon--trash" viewbox="0 0 512 512"><path d="M167.831 176h30v250h-30zM241.331 176h30v250h-30zM314.831 176h30v250h-30z"/><path d="M357.448 88.635V15.86H175.214v72.774H29.539v58.146h44.237V512h365.111V146.78h43.575V88.635H357.448zM215.214 55.86h102.234v32.774H215.214V55.86zm166.783 399.251H130.664V146.889h251.333v308.222z"/></symbol></svg>