<svg xmlns="http://www.w3.org/2000/svg" style="display:none"><symbol id="svg-icon--arrow-back" viewbox="0 0 512 512"><path d="M490 231H90v50h400v-50z"/><path d="M164.355 114.579L22.934 256l35.355 35.355L199.71 149.934l-35.355-35.355z"/><path d="M199.711 362.066L58.289 220.645 22.934 256l141.421 141.421 35.356-35.355z"/></symbol><symbol id="svg-icon--check" viewbox="0 0 512 512"><path d="M189.96 329.115L72.409 211.564l-51.701 51.701L189.96 432.517l301.332-301.332-51.7-51.702z"/></symbol><symbol id="svg-icon--collection" viewbox="0 0 24 26"><title>collection</title><path opacity=".6" d="M3.435 14.992l-2.749 2L12 25.225l11.314-8.233-2.749-2-1.657 1.205 1.092.795-8 5.821-8-5.821 1.092-.795z"/><path opacity=".8" d="M3.435 10.992l-2.749 2L12 21.225l11.314-8.233-2.749-2-1.657 1.205 1.092.795-8 5.821-8-5.821 1.092-.795z"/><path d="M12 .759L.686 8.992 12 17.225l11.314-8.233L12 .759zM4.144 8.992L12 3.275l7.856 5.717L12 14.708 4.144 8.992z"/></symbol><symbol id="svg-icon--edit" viewbox="0 0 512 512"><path d="M412.656 38.477l-39.973 39.975 58.761 58.76 39.976-39.981-58.764-58.754zM131.421 393.155l-15.932-15.935 250.923-250.928-20.286-21.283L85.215 365.922l.006.001-27.738 86.962 86.973-28.684.006-.003 260.424-260.432-22.537-21.537-250.928 250.926z"/><path fill="none" d="M-538.344 213.477l-39.973 39.975 58.761 58.76 39.976-39.98-58.764-58.755zm-285.235 349.678l-15.932-15.935 250.923-250.928-16.286-16.283-260.911 260.912.006.001-47.739 106.962 106.973-48.684.006-.003 260.424-260.432-26.537-26.537-250.927 250.927z"/></symbol><symbol id="svg-icon--eye" viewbox="0 0 512 512"><path class="outer" d="M253.255 97.425C94.591 97.425 0 245.644 0 245.644s96.71 158.231 255.375 158.231S510.75 244.266 510.75 244.266 411.92 97.425 253.255 97.425zm.971 242.606c-49.364 0-89.382-40.018-89.382-89.381 0-49.364 40.018-89.382 89.382-89.382s89.381 40.017 89.381 89.382-40.017 89.381-89.381 89.381z"/><circle class="inner" cx="255.375" cy="250.65" r="50.922"/></symbol><symbol id="svg-icon--formandsystem-font" viewbox="0 0 1823.999 679.182"><path fill="#FEE01A" d="M473.106 514.407l-.19-.235c20.439-26.703 36.376-52.154 45.527-74.302 16.857-40.045 26.303-79.652 28.345-118.823H436.197c-.301 19.814-3.327 38.611-9.077 56.383-5.423 16.756-14.543 34.791-24.47 49.494l-.091-.113-92.294-112.439c34.924-20.121 61.432-41.987 79.508-65.6 18.127-23.673 27.19-54.511 27.19-92.513 0-42.094-15.115-76.661-45.344-103.702-30.23-27.034-68.492-40.556-114.793-40.556-50.727 0-92.015 13.209-123.864 39.614-31.856 26.413-47.777 63.11-47.777 110.087 0 23.639 5.096 46.404 15.3 68.286 10.197 21.885 24.622 43.331 43.275 64.34l-13.551 8.306c-43.713 27.109-75.186 54.504-94.419 82.193-19.234 27.689-28.85 60.917-28.85 99.678l.383-.012-.381.012c0 46.929 18.557 89.631 55.672 128.098 37.115 38.474 88.661 57.707 154.646 57.707 43.89 0 81.772-10.412 116.208-25.927 18.006-8.113 51.242-28.194 64.654-40.333l41.136 50.087h150.807l-116.959-139.73zM222.381 114.308c9.972-6.134 20.701-9.2 32.191-9.2 18.434 0 32.182 5.259 41.253 15.771 9.071 10.511 13.605 22.484 13.605 35.913 0 18.4-7.56 35.489-22.668 51.253-7.861 8.469-19.395 20.302-38.994 31.097-18.14-21.61-29.922-36.644-35.359-45.113-8.469-12.846-12.697-25.114-12.697-36.794 0-19.562 7.553-33.87 22.669-42.927zm61.936 437.48c-19.376 7.483-38.18 14.05-58.936 14.05-27.58 0-50.188-8.899-67.829-26.699-17.649-17.799-26.467-37.347-26.467-58.65h-.002c.002-18.963 5.084-36.332 15.258-52.086 10.177-15.756 31.036-33.993 62.592-54.716l.29-.17 121.576 148.557c-9.94 11.402-38.81 26.75-46.482 29.714z"/><lineargradient id="a" gradientunits="userSpaceOnUse" x1="648.238" y1="343.66" x2="811.303" y2="267.622" gradienttransform="translate(-535 -161.818)"><stop offset="0" stop-color="#fecd27"/><stop offset="1" stop-color="#fee01a"/></lineargradient><path fill="url(#a)" d="M143.76 294.328c-18.653-21.009-33.078-42.455-43.275-64.34-10.204-21.883-15.3-44.648-15.3-68.287 0-46.977 15.921-83.675 47.777-110.087C164.81 25.21 206.098 12 256.826 12l-2.254 93.107c-11.489 0-22.219 3.066-32.191 9.2-15.115 9.057-22.668 23.365-22.668 42.927 0 11.68 4.227 23.947 12.697 36.793 5.437 8.469 17.219 23.503 35.359 45.113L143.76 294.328z"/><lineargradient id="b" gradientunits="userSpaceOnUse" x1="778.108" y1="500.991" x2="887.529" y2="621.78" gradienttransform="translate(-535 -161.818)"><stop offset="0" stop-color="#e1af1f"/><stop offset=".141" stop-color="#e1af1f" stop-opacity=".859"/><stop offset="1" stop-color="#e1af1f" stop-opacity="0"/></lineargradient><path opacity=".5" fill="url(#b)" d="M208.935 373.688l91.867 111.861 29.997 36.525 67.322 81.975 41.136 50.088h150.807l-116.958-139.73-70.547-87.596-92.588-112.266z"/><lineargradient id="c" gradientunits="userSpaceOnUse" x1="785.127" y1="403.131" x2="733.97" y2="317.868" gradienttransform="translate(-535 -161.818)"><stop offset="0" stop-color="#e1af1f"/><stop offset=".141" stop-color="#e1af1f" stop-opacity=".859"/><stop offset="1" stop-color="#e1af1f" stop-opacity="0"/></lineargradient><path opacity=".5" fill="url(#c)" d="M143.76 294.328c-18.653-21.009-33.078-42.455-43.275-64.34-10.204-21.883-15.3-44.648-15.3-68.287 0-46.977 15.921-83.675 47.777-110.087C164.81 25.21 206.098 12 256.826 12l-2.254 93.107c-11.489 0-22.219 3.066-32.191 9.2-15.115 9.057-22.668 23.365-22.668 42.927 0 11.68 4.227 23.947 12.697 36.793 5.437 8.469 17.219 23.503 35.359 45.113L143.76 294.328z"/><lineargradient id="d" gradientunits="userSpaceOnUse" x1="944.044" y1="628.954" x2="1012.254" y2="555.06" gradienttransform="translate(-535 -161.818)"><stop offset="0" stop-color="#e1af1f"/><stop offset=".141" stop-color="#e1af1f" stop-opacity=".859"/><stop offset="1" stop-color="#e1af1f" stop-opacity="0"/></lineargradient><path fill="url(#d)" d="M518.444 439.87c16.857-40.045 26.303-79.652 28.345-118.823H436.197c-.301 19.814-3.327 38.611-9.077 56.383-5.751 17.771-13.94 34.233-24.561 49.381l70.548 87.596c20.926-27.184 36.035-52.025 45.337-74.537z"/><lineargradient id="e" gradientunits="userSpaceOnUse" x1="939.889" y1="753.745" x2="666.92" y2="734.657" gradienttransform="translate(-535 -161.818)"><stop offset="0" stop-color="#e1af1f"/><stop offset=".141" stop-color="#e1af1f" stop-opacity=".859"/><stop offset="1" stop-color="#e1af1f" stop-opacity="0"/></lineargradient><path fill="url(#e)" d="M6.941 484.505c0 46.929 18.557 89.631 55.672 128.098 37.115 38.474 88.661 57.707 154.646 57.707 43.89 0 81.772-10.412 116.208-25.927 18.006-8.113 51.243-28.194 64.655-40.334l-67.323-81.975c-9.94 11.402-38.81 26.75-46.482 29.714-19.376 7.483-38.18 14.05-58.936 14.05-27.58 0-50.188-8.899-67.829-26.699-17.649-17.799-26.467-37.347-26.467-58.65L6.941 484.505z"/><lineargradient id="f" gradientunits="userSpaceOnUse" x1="944.044" y1="628.954" x2="1012.254" y2="555.06" gradienttransform="translate(-535 -161.818)"><stop offset="0" stop-color="#e1af1f"/><stop offset=".092" stop-color="#f5c318"/><stop offset="1" stop-color="#fee01a"/></lineargradient><path fill="url(#f)" d="M518.444 439.87c16.857-40.045 26.303-79.652 28.345-118.823H436.197c-.301 19.814-3.327 38.611-9.077 56.383-5.751 17.771-13.94 34.233-24.561 49.381l70.548 87.596c20.926-27.184 36.035-52.025 45.337-74.537z"/><lineargradient id="g" gradientunits="userSpaceOnUse" x1="939.889" y1="753.745" x2="666.92" y2="734.657" gradienttransform="translate(-535 -161.818)"><stop offset="0" stop-color="#e1af1f"/><stop offset=".092" stop-color="#f5c318"/><stop offset="1" stop-color="#fee01a"/></lineargradient><path fill="url(#g)" d="M6.941 484.505c0 46.929 18.557 89.631 55.672 128.098 37.115 38.474 88.661 57.707 154.646 57.707 43.89 0 81.772-10.412 116.208-25.927 18.006-8.113 51.243-28.194 64.655-40.334l-67.323-81.975c-9.94 11.402-38.81 26.75-46.482 29.714-19.376 7.483-38.18 14.05-58.936 14.05-27.58 0-50.188-8.899-67.829-26.699-17.649-17.799-26.467-37.347-26.467-58.65L6.941 484.505z"/><lineargradient id="h" gradientunits="userSpaceOnUse" x1="1125.064" y1="644.878" x2="742.269" y2="644.878" gradienttransform="translate(-535 -161.818)"><stop offset="0" stop-color="#fee01a"/><stop offset="1" stop-color="#fecd27"/></lineargradient><path fill="url(#h)" d="M207.269 371.126l93.533 114.423 29.997 36.525 67.322 81.975 41.136 50.088h150.807l-116.958-139.73-70.547-87.596-94.255-114.828z"/><g><path d="M734.212 131.958v146.526h-48.196V131.958h-20.021V96.317h20.021V72.916c0-26.642 17.054-53.643 56.353-53.643h27.436v39.602h-18.908c-11.493 0-16.684 6.121-16.684 16.921v20.521h35.592v35.642h-35.593z"/></g><g><path d="M940.341 257.604c-11.863 12.24-31.512 23.041-60.059 23.041-28.548 0-47.826-10.801-59.69-23.041-17.425-17.641-21.873-38.882-21.873-73.083 0-33.841 4.448-55.082 21.873-72.723 11.864-12.24 31.143-23.041 59.69-23.041 28.547 0 48.196 10.801 60.059 23.041 17.426 17.641 21.875 38.882 21.875 72.723 0 34.201-4.449 55.442-21.875 73.083zm-37.444-118.446c-5.562-5.4-12.977-8.28-22.615-8.28-9.64 0-16.684 2.88-22.245 8.28-10.01 9.721-11.122 25.921-11.122 45.362 0 19.441 1.112 36.002 11.122 45.722 5.562 5.4 12.605 8.28 22.245 8.28 9.639 0 17.054-2.88 22.615-8.28 10.01-9.72 11.122-26.281 11.122-45.722 0-19.44-1.111-35.641-11.122-45.362z"/></g><g><path d="M1105.695 142.039c-7.414-7.201-13.717-11.161-25.58-11.161-14.83 0-31.143 10.8-31.143 34.562v113.045h-48.197V90.916h47.084v18.001c9.27-10.801 27.807-20.161 48.568-20.161 18.908 0 32.254 4.68 45.602 17.641l-36.334 35.642zM1394.128 278.485V165.08c0-25.562-16.684-34.202-31.883-34.202-14.83 0-32.256 8.64-32.256 33.122v114.485h-48.195V165.08c0-25.562-16.684-34.202-31.885-34.202-15.199 0-32.254 8.64-32.254 34.202v113.405h-48.197V90.916h47.084v17.281c12.605-12.601 30.402-19.441 48.197-19.441 21.504 0 38.928 7.561 51.162 23.761 16.312-16.561 33.738-23.761 57.836-23.761 19.279 0 36.703 6.121 47.455 16.561 15.572 15.121 21.133 32.761 21.133 53.282v119.885h-48.197z"/></g><g><path d="M741.48 574.414c-30.4 0-57.836-3.24-82.305-27.001l31.514-30.602c15.941 15.48 36.703 17.641 51.533 17.641 16.683 0 34.108-5.4 34.108-19.44 0-9.36-5.19-15.841-20.392-17.281l-30.4-2.88c-34.85-3.24-56.354-18.001-56.354-52.562 0-38.882 35.221-59.763 74.52-59.763 30.03 0 55.241 5.04 73.778 21.961l-29.66 29.161c-11.122-9.72-28.176-12.601-44.859-12.601-19.278 0-27.436 8.641-27.436 18.001 0 6.841 2.967 14.761 20.021 16.201l30.401 2.88c38.187 3.601 57.465 23.401 57.465 55.082.001 41.402-36.332 61.203-81.934 61.203z"/></g><g><path d="M935.748 602.495c-4.078 10.44-8.527 18.361-14.459 24.121-11.123 10.801-25.582 14.4-41.524 14.4h-18.907v-42.121h11.122c13.718 0 19.278-3.24 24.099-16.921l8.156-23.041-65.992-174.248h50.791l40.041 115.925 38.557-115.925h50.793l-82.677 217.81z"/></g><g><path d="M1095.535 574.414c-30.4 0-57.836-3.24-82.305-27.001l31.514-30.602c15.941 15.48 36.703 17.641 51.533 17.641 16.682 0 34.107-5.4 34.107-19.44 0-9.36-5.189-15.841-20.391-17.281l-30.4-2.88c-34.85-3.24-56.354-18.001-56.354-52.562 0-38.882 35.221-59.763 74.52-59.763 30.029 0 55.24 5.04 73.777 21.961l-29.66 29.161c-11.121-9.72-28.176-12.601-44.859-12.601-19.277 0-27.436 8.641-27.436 18.001 0 6.841 2.967 14.761 20.021 16.201l30.4 2.88c38.188 3.601 57.465 23.401 57.465 55.082.001 41.402-36.331 61.203-81.932 61.203zM1274.603 572.254c-39.299 0-55.982-27.001-55.982-53.643v-92.884h-20.391v-35.642h20.391v-55.442h48.197v55.442h34.107v35.642h-34.107v90.004c0 10.801 5.189 16.921 16.684 16.921h17.424v39.602h-26.323z"/></g><g><path d="M1386.191 493.051c0 24.121 15.199 41.762 42.264 41.762 21.133 0 31.514-5.761 43.748-17.641l29.289 27.721c-19.65 19.081-38.557 29.521-73.408 29.521-45.6 0-89.348-20.161-89.348-96.124 0-61.203 34.107-95.765 84.158-95.765 53.758 0 84.158 38.161 84.158 89.645v20.881h-120.861zm68.957-52.203c-5.189-11.16-15.941-19.44-32.254-19.44s-27.064 8.28-32.254 19.44c-2.967 6.841-4.078 11.881-4.449 20.161h73.406c-.371-8.28-1.482-13.32-4.449-20.161z"/></g><g><path d="M1768.792 572.254V458.849c0-25.561-16.684-34.201-31.885-34.201-14.83 0-32.254 8.641-32.254 33.121v114.485h-48.197V458.849c0-25.561-16.684-34.201-31.883-34.201-15.201 0-32.256 8.641-32.256 34.201v113.405h-48.195V384.686h47.084v17.28c12.605-12.601 30.4-19.44 48.195-19.44 21.504 0 38.93 7.561 51.164 23.761 16.312-16.561 33.736-23.761 57.836-23.761 19.277 0 36.703 6.12 47.455 16.561 15.57 15.121 21.131 32.762 21.131 53.282v119.886h-48.195z"/></g></symbol><symbol id="svg-icon--formandsystem" viewbox="0 0 512 512"><path d="M391.775 390.659c16.266-21.15 28.008-40.474 35.234-57.985 13.096-31.15 20.428-61.957 22.003-92.422l-86.011.039c-.227 15.41-2.574 30.03-7.04 43.854-4.466 13.823-10.829 26.628-19.084 38.413l-72.048-87.279c27.269-15.698 47.951-32.759 62.041-51.181 14.09-18.418 21.127-42.405 21.114-71.96-.015-32.738-11.782-59.616-35.302-80.636C289.162 10.487 259.4-.016 223.39 0c-39.452.018-71.558 10.306-96.319 30.852-24.765 20.553-37.135 49.099-37.118 85.635.008 18.385 3.979 36.088 11.923 53.103 7.938 17.017 19.165 33.692 33.678 50.023l-10.535 6.464c-33.987 21.099-58.455 42.416-73.403 63.958-14.948 21.541-22.416 47.388-22.402 77.533.017 36.498 14.464 69.702 43.343 99.606 28.879 29.909 68.975 44.849 120.293 44.825 34.134-.015 63.593-8.127 90.369-20.205 8.01-3.613 19.892-10.275 30.549-17.082l-49.614-60.356-2.607-3.171c-7.027 4.158-13.715 7.503-16.586 8.613-15.066 5.827-29.689 10.941-45.832 10.948-21.45.01-39.036-6.904-52.762-20.741-13.732-13.837-20.597-29.036-20.605-45.604-.007-14.751 3.939-28.256 11.848-40.514 7.909-12.258 24.126-26.448 48.66-42.576h.002l71.487 86.965 23.342 28.396 52.388 63.731 32.01 38.94 117.287-.053-91.011-108.631zM246.741 152.458c-6.111 6.59-16.216 14.658-30.315 24.198-14.115-16.8-23.284-28.488-27.515-35.073-6.592-9.988-9.884-19.527-9.888-28.611-.007-15.213 5.863-26.344 17.615-33.393 7.753-4.774 16.097-7.163 25.032-7.167 14.336-.007 25.031 4.079 32.089 12.251s10.589 17.482 10.594 27.926c.006 14.31-5.868 27.604-17.612 39.869zM281.101 396.672l-23.342-28.396 23.342 28.396z"/></symbol><symbol id="svg-icon--loading-circle" viewbox="0 0 512 512"><path d="M394.593 117.407c24.666 24.666 41.936 54.753 50.724 87.57l57.906-15.606C473.898 80.296 374.334 0 256 0S38.102 80.296 8.777 189.371l57.906 15.606c8.787-32.817 26.057-62.904 50.724-87.57C154.427 80.388 203.646 60 256 60s101.574 20.388 138.593 57.407z"/></symbol><symbol id="svg-icon--page-2" viewbox="0 0 512 512"><path d="M338.067 0H28.445v512h455.111V145.489L338.067 0zm88.6 455.111H85.334V56.889h232.733v108.6h108.6v289.622z"/></symbol><symbol id="svg-icon--page" viewbox="0 0 512 512"><path d="M284.444 398.222H142.222v-56.889h142.222v56.889zm85.333-113.778H142.222v-56.889h227.556l-.001 56.889zm0-113.777H142.222v-56.889h227.556l-.001 56.889z"/><path d="M483.555 512H28.445V0h455.111v512h-.001zM85.334 455.111h341.333V56.889H85.334v398.222z"/></symbol><symbol id="svg-icon--pages" viewbox="0 0 512 512"><path d="M219.249 414.555H97.444v-48.722h121.805v48.722zm73.083-97.444H97.444v-48.722h194.889l-.001 48.722zm0-97.444H97.444v-48.722h194.889l-.001 48.722z"/><path d="M389.777 512H0V73.5h389.778l-.001 438.5zM48.722 463.278h292.333V122.222H48.722v341.056z"/><path d="M72 0v73.5h48.722V48.722h292.333v341.056h-23.277V438.5h72V0z" opacity=".6"/></symbol><symbol id="svg-icon--plus" viewbox="0 0 512 512"><path d="M512 224H288V0h-64v224H0v64h224v224h64V288h224z"/></symbol><symbol id="svg-icon--posts" viewbox="0 0 24 26"><title>collection</title><path opacity=".6" d="M3.435 14.992l-2.749 2L12 25.225l11.314-8.233-2.749-2-1.657 1.205 1.092.795-8 5.821-8-5.821 1.092-.795z"/><path opacity=".8" d="M3.435 10.992l-2.749 2L12 21.225l11.314-8.233-2.749-2-1.657 1.205 1.092.795-8 5.821-8-5.821 1.092-.795z"/><path d="M12 .759L.686 8.992 12 17.225l11.314-8.233L12 .759zM4.144 8.992L12 3.275l7.856 5.717L12 14.708 4.144 8.992z"/></symbol><symbol id="svg-icon--settings" viewbox="0 0 20 20"><title>Settings</title><path d="M17.561 12.143a7.81 7.81 0 0 1-.7 1.688l1.725 1.725-3.03 3.03-1.725-1.725a7.81 7.81 0 0 1-1.688.7V20H7.857v-2.439a7.81 7.81 0 0 1-1.688-.7l-1.725 1.725-3.03-3.03 1.725-1.725a7.81 7.81 0 0 1-.7-1.688H0V7.857h2.439a7.81 7.81 0 0 1 .7-1.688L1.414 4.444l3.03-3.03L6.17 3.139a7.81 7.81 0 0 1 1.688-.7V0h4.286v2.439a7.81 7.81 0 0 1 1.688.7l1.725-1.725 3.03 3.03-1.725 1.725a7.81 7.81 0 0 1 .7 1.688H20v4.286h-2.439zM10 14.286a4.286 4.286 0 1 0 0-8.572 4.286 4.286 0 0 0 0 8.572z" fill="#000" fill-rule="evenodd"/></symbol><symbol id="svg-icon--trash" viewbox="0 0 512 512"><path d="M167.831 176h30v250h-30zM241.331 176h30v250h-30zM314.831 176h30v250h-30z"/><path d="M357.448 88.635V15.86H175.214v72.774H29.539v58.146h44.237V512h365.111V146.78h43.575V88.635H357.448zM215.214 55.86h102.234v32.774H215.214V55.86zm166.783 399.251H130.664V146.889h251.333v308.222z"/></symbol><symbol id="svg-icon--x" viewbox="0 0 512 512"><path d="M432.449 131.185l-51.701-51.702L256 204.344 131.252 79.483l-51.701 51.702 124.828 124.827-124.828 124.94 51.566 51.565L256 307.634l124.883 124.883 51.566-51.565-124.828-124.94z"/></symbol></svg>