<svg xmlns="http://www.w3.org/2000/svg" style="display:none"><symbol id="svg-icon--arrow-back" viewbox="0 0 512 512"><path d="M490 231H90v50h400v-50z"/><path d="M164.355 114.579L22.934 256l35.355 35.355L199.71 149.934l-35.355-35.355z"/><path d="M199.711 362.066L58.289 220.645 22.934 256l141.421 141.421 35.356-35.355z"/></symbol><symbol id="svg-icon--eye-closed" viewbox="0 0 512 512"><path d="M253.875 102.4C94.822 102.4 0 250.982 0 250.982S96.947 409.6 256 409.6s256-160 256-160-99.072-147.2-258.125-147.2zm.973 243.2c-49.485 0-89.6-40.115-89.6-89.6s40.115-89.6 89.6-89.6 89.6 40.115 89.6 89.6-40.115 89.6-89.6 89.6z"/></symbol><symbol id="svg-icon--eye" viewbox="0 0 512 512"><path d="M253.255 97.425C94.591 97.425 0 245.644 0 245.644s96.71 158.231 255.375 158.231S510.75 244.266 510.75 244.266 411.92 97.425 253.255 97.425zm.971 242.606c-49.364 0-89.382-40.018-89.382-89.381 0-49.364 40.018-89.382 89.382-89.382s89.381 40.017 89.381 89.382-40.017 89.381-89.381 89.381zm1.149-140.303c28.123 0 50.922 22.799 50.922 50.922s-22.799 50.922-50.922 50.922-50.922-22.799-50.922-50.922 22.799-50.922 50.922-50.922z"/></symbol><symbol id="svg-icon--formandsystem" viewbox="0 0 512 512"><path d="M391.775 390.659c16.266-21.15 28.008-40.474 35.234-57.985 13.096-31.15 20.428-61.957 22.003-92.422l-86.011.039c-.227 15.41-2.574 30.03-7.04 43.854-4.466 13.823-10.829 26.628-19.084 38.413l-72.048-87.279c27.269-15.698 47.951-32.759 62.041-51.181 14.09-18.418 21.127-42.405 21.114-71.96-.015-32.738-11.782-59.616-35.302-80.636C289.162 10.487 259.4-.016 223.39 0c-39.452.018-71.558 10.306-96.319 30.852-24.765 20.553-37.135 49.099-37.118 85.635.008 18.385 3.979 36.088 11.923 53.103 7.938 17.017 19.165 33.692 33.678 50.023l-10.535 6.464c-33.987 21.099-58.455 42.416-73.403 63.958-14.948 21.541-22.416 47.388-22.402 77.533.017 36.498 14.464 69.702 43.343 99.606 28.879 29.909 68.975 44.849 120.293 44.825 34.134-.015 63.593-8.127 90.369-20.205 8.01-3.613 19.892-10.275 30.549-17.082l-49.614-60.356-2.607-3.171c-7.027 4.158-13.715 7.503-16.586 8.613-15.066 5.827-29.689 10.941-45.832 10.948-21.45.01-39.036-6.904-52.762-20.741-13.732-13.837-20.597-29.036-20.605-45.604-.007-14.751 3.939-28.256 11.848-40.514 7.909-12.258 24.126-26.448 48.66-42.576h.002l71.487 86.965 23.342 28.396 52.388 63.731 32.01 38.94 117.287-.053-91.011-108.631zM246.741 152.458c-6.111 6.59-16.216 14.658-30.315 24.198-14.115-16.8-23.284-28.488-27.515-35.073-6.592-9.988-9.884-19.527-9.888-28.611-.007-15.213 5.863-26.344 17.615-33.393 7.753-4.774 16.097-7.163 25.032-7.167 14.336-.007 25.031 4.079 32.089 12.251s10.589 17.482 10.594 27.926c.006 14.31-5.868 27.604-17.612 39.869zM281.101 396.672l-23.342-28.396 23.342 28.396z"/></symbol><symbol id="svg-icon--page-2" viewbox="0 0 512 512"><path d="M338.067 0H28.445v512h455.111V145.489L338.067 0zm88.6 455.111H85.334V56.889h232.733v108.6h108.6v289.622z"/></symbol><symbol id="svg-icon--page" viewbox="0 0 512 512"><path d="M284.444 398.222H142.222v-56.889h142.222v56.889zm85.333-113.778H142.222v-56.889h227.556l-.001 56.889zm0-113.777H142.222v-56.889h227.556l-.001 56.889z"/><path d="M483.555 512H28.445V0h455.111v512h-.001zM85.334 455.111h341.333V56.889H85.334v398.222z"/></symbol><symbol id="svg-icon--trash" viewbox="0 0 512 512"><path d="M167.831 176h30v250h-30zM241.331 176h30v250h-30zM314.831 176h30v250h-30z"/><path d="M357.448 88.635V15.86H175.214v72.774H29.539v58.146h44.237V512h365.111V146.78h43.575V88.635H357.448zM215.214 55.86h102.234v32.774H215.214V55.86zm166.783 399.251H130.664V146.889h251.333v308.222z"/></symbol></svg>