<svg xmlns="http://www.w3.org/2000/svg" style="display:none"><symbol id="icon-arrow-left" viewbox="0 0 512 512"><path d="M490 231H90v50h400v-50zM164.355 114.58L22.935 256l35.354 35.355 141.42-141.42-35.355-35.356zM199.71 362.066L58.29 220.646 22.933 256l141.42 141.42 35.357-35.354z"></path></symbol><symbol id="icon-eye-closed" viewbox="0 0 512 512"><path d="M253.875 102.4C94.822 102.4 0 250.982 0 250.982S96.947 409.6 256 409.6s256-160 256-160-99.072-147.2-258.125-147.2zm.973 243.2c-49.485 0-89.6-40.115-89.6-89.6s40.115-89.6 89.6-89.6 89.6 40.115 89.6 89.6-40.115 89.6-89.6 89.6z"></path></symbol><symbol id="icon-eye" viewbox="0 0 512 512"><path d="M253.255 97.425C94.59 97.425 0 245.645 0 245.645s96.71 158.23 255.375 158.23 255.375-159.61 255.375-159.61-98.83-146.84-257.495-146.84zm.97 242.606c-49.363 0-89.38-40.017-89.38-89.38 0-49.364 40.017-89.382 89.38-89.382s89.382 40.017 89.382 89.382-40.017 89.38-89.38 89.38zm1.15-140.302c28.123 0 50.922 22.8 50.922 50.922s-22.8 50.922-50.922 50.922-50.922-22.8-50.922-50.922 22.8-50.922 50.922-50.922z"></path></symbol><symbol id="icon-formandsystem" viewbox="0 0 512 512"><g fill="none"><path d="M137.61 323.886c-7.908 12.258-11.854 25.763-11.847 40.514.008 16.568 6.872 31.768 20.605 45.604 13.727 13.837 31.312 20.75 52.762 20.74 16.143-.006 30.765-5.12 45.832-10.947 5.966-2.307 28.413-14.254 36.14-23.126l-23.342-28.395-71.488-86.966c-24.535 16.128-40.752 30.32-48.66 42.576zM246.74 152.458c11.745-12.265 17.62-25.56 17.613-39.87-.005-10.443-3.536-19.753-10.594-27.925-7.06-8.172-17.754-12.258-32.09-12.25-8.935.003-17.28 2.392-25.032 7.166-11.752 7.048-17.622 18.18-17.615 33.392.004 9.084 3.296 18.623 9.888 28.61 4.232 6.586 13.4 18.274 27.516 35.074 14.1-9.54 24.204-17.608 30.315-24.198zM281.1 396.672l-23.34-28.396 23.34 28.396z"></path></g><path d="M391.775 390.66c16.266-21.15 28.008-40.475 35.234-57.986 13.095-31.15 20.427-61.957 22.002-92.422l-86.01.04c-.228 15.41-2.575 30.03-7.04 43.853-4.467 13.823-10.83 26.628-19.085 38.413l-72.048-87.28c27.268-15.697 47.95-32.758 62.04-51.18 14.09-18.418 21.127-42.405 21.114-71.96-.015-32.738-11.782-59.616-35.302-80.636C289.162 10.487 259.4-.016 223.39 0c-39.452.018-71.558 10.306-96.32 30.852-24.764 20.553-37.134 49.1-37.117 85.635.008 18.385 3.98 36.088 11.923 53.103 7.938 17.017 19.165 33.692 33.678 50.023l-10.535 6.464c-33.988 21.1-58.456 42.416-73.404 63.958-14.948 21.54-22.416 47.388-22.402 77.533.017 36.498 14.464 69.702 43.343 99.606 28.88 29.91 68.975 44.85 120.293 44.825 34.134-.016 63.593-8.128 90.37-20.206 8.01-3.613 19.89-10.275 30.548-17.082l-49.614-60.356-2.607-3.17c-7.027 4.157-13.715 7.502-16.586 8.612-15.065 5.827-29.688 10.94-45.83 10.948-21.45.01-39.037-6.904-52.763-20.74-13.732-13.838-20.597-29.037-20.605-45.605-.007-14.75 3.94-28.255 11.848-40.513 7.91-12.258 24.126-26.448 48.66-42.576h.002l71.487 86.966 23.34 28.396 52.39 63.73 32.01 38.94 117.286-.052-91.01-108.63zM246.74 152.456c-6.11 6.59-15.076 15.796-30.315 24.2-14.115-16.8-23.283-28.488-27.514-35.073-6.59-9.988-9.883-19.527-9.887-28.61-.007-15.214 5.863-26.345 17.615-33.394 7.753-4.774 16.097-7.163 25.032-7.167v-.002c14.336-.006 25.03 4.08 32.09 12.252s10.588 17.482 10.593 27.926c.006 14.31-5.868 27.604-17.612 39.87z"></path></symbol><symbol id="icon-fragment" viewbox="0 0 512 512"><path d="M207.413 512H0V302.054h207.413V512zM40 472h127.413V342.054H40V472zM207.413 245.5H0V35.553h207.413V245.5zM40 205.5h127.413V75.553H40V205.5zM512 209.947H304.587V0H512v209.947zm-167.413-40H472V40H344.587v129.947zM464.913 512H257.5V302.054h207.413V512zM297.5 472h127.413V342.054H297.5V472z"></path></symbol><symbol id="icon-link" viewbox="0 0 512 512"><path d="M245.376 368.875L172.31 441.97c-13.76 13.73-32.103 21.306-51.673 21.306-19.37 0-37.544-7.463-51.075-20.994-13.588-13.588-21.05-31.79-20.994-51.246.057-19.484 7.606-37.772 21.307-51.474l72.64-72.64 46.602-46.573c20.538-20.51 68.708-11.053 91.012 11.28.17.17.312.37.483.54 10.967 11.195 17.832 25.466 19.855 40.962 6.267-2.307 12.078-5.783 16.892-10.597l24.042-24.013c-4.13-10.54-9.8-20.424-16.75-29.483l.085-.086c-.256-.342-.57-.627-.855-.97-2.85-3.617-5.868-7.12-9.144-10.425-.085-.086-.142-.172-.228-.257-2.535-2.535-5.24-4.957-8.09-7.292-10-8.345-21.165-14.954-33.13-19.597l-.198.256c-39.766-16.067-88.42-14.614-118.33 15.324l-57.057 57.028-62.184 62.184C12.706 328.056.058 358.506 0 390.923c-.057 32.445 12.42 62.896 35.237 85.685 22.703 22.732 53.04 35.237 85.4 35.237 32.53 0 63.096-12.648 85.998-35.55L311.89 371.01c-9.43 1.91-19.142 2.878-29.027 2.878-12.847 0-25.41-1.794-37.487-5.013m238.74-170.8c.768-.97 1.452-1.966 2.22-2.935 1.653-2.136 3.334-4.273 4.815-6.466.57-.855 1.055-1.738 1.625-2.592 1.567-2.42 3.076-4.9 4.444-7.406.398-.74.74-1.51 1.138-2.25 1.424-2.763 2.792-5.555 3.988-8.432.2-.513.4-1.054.627-1.567 1.31-3.247 2.478-6.495 3.532-9.828.028-.143.085-.257.114-.428 11.194-36.576 5.04-77.538-19.57-109.47l-.4.284c-3.133-4.016-6.41-7.948-10.084-11.622C453.834 12.66 423.496.156 391.136.156c-32.558 0-63.095 12.62-85.997 35.55l-45.15 45.12-.03-.027-32.188 32.188-33.243 33.214c-.57.598-1.055 1.225-1.625 1.795 21.535-4.928 44.865-4.102 66.94 1.595l34.84-34.81 44.78-44.723c13.73-13.76 32.102-21.337 51.672-21.337 19.37 0 37.544 7.463 51.075 20.994 13.56 13.588 21.022 31.79 20.994 51.246-.057 17.576-6.238 34.154-17.49 47.286-1.14 1.338-2.307 2.648-3.56 3.902l-107.59 107.59c-28.4 28.4-74.49 28.544-102.75.314-14.868-14.927-22.19-34.354-21.99-53.297-3.79 1.053-6.98 2.734-9.286 5.04l-33.3 33.272c2.45 7.55 5.81 14.87 9.77 21.934h-.426c5.47 10.055 12.363 19.4 20.652 27.688 22.732 22.732 53.04 35.208 85.4 35.208 32.56 0 63.067-12.62 85.998-35.522l107.59-107.59c2.223-2.223 4.245-4.56 6.268-6.923.54-.625 1.11-1.166 1.623-1.793"></path></symbol><symbol id="icon-media" viewbox="0 0 512 512"><path d="M483.555 487H28.445V25h455.11v462zM85.333 430.11h341.333V81.89H85.333v348.22zM123.476 114.78h265.048v217.44H123.476z"></path></symbol><symbol id="icon-page-add" viewbox="0 0 512 512"><path d="M476.5 379.778h-75.333v-75.334h-56.89v75.334h-75.333v56.888h75.333V512h56.89v-75.334H476.5z"></path><path class="page-outline" d="M221 379.768H85.334V56.888H344.89v190.556h56.888V0H28.445v436.657H221z"></path></symbol><symbol id="icon-page" viewbox="0 0 512 512"><path d="M284.444 398.222H142.222v-56.89h142.222v56.89zm85.333-113.778H142.222v-56.89h227.556v56.89zm0-113.777H142.222v-56.89h227.556v56.89zM483.555 512H28.445V0h455.11v512zm-398.22-56.89h341.332V56.89H85.334v398.22z"></path></symbol><symbol id="icon-plus" viewbox="0 0 512 512"><path d="M196.923 196.923V0h118.154v196.923H512v118.154H315.077V512H196.923V315.077H0V196.923z"></path></symbol><symbol id="icon-search" viewbox="0 0 512 512"><path d="M384.41 330.972c21.18-34.308 33.23-75.283 32.616-119.13C415.36 93.253 321.69-1.594 207.844.02 93.997 1.636 3.098 99.073 4.764 217.664S100.1 431.102 213.948 429.487c41.308-.564 79.59-13.77 111.54-36.026L447.385 512l59.872-61.59L384.41 330.972zM212.767 346.87c-67.462.95-124.335-56.667-125.386-130.36-1.05-73.693 54.207-132.9 121.644-133.848 67.437-.95 124.335 56.667 125.386 130.36s-54.206 132.9-121.643 133.848z"></path></symbol><symbol id="icon-settings" viewbox="0 0 512 512"><path d="M512 310.86V201.14h-62.618c-4.3-15.182-10.24-29.646-17.792-43.137l44.237-44.237-77.568-77.568-44.238 44.237c-13.49-7.552-27.955-13.49-43.136-17.792V0H201.14v62.618c-15.182 4.3-29.646 10.24-43.137 17.792L113.766 36.2l-77.568 77.567 44.237 44.237c-7.552 13.49-13.517 27.955-17.818 43.136H0v109.722h62.618c4.3 15.18 10.24 29.645 17.792 43.136l-44.237 44.237 77.568 77.568 44.238-44.237c13.49 7.552 27.955 13.49 43.136 17.792V512h109.722v-62.618c15.18-4.3 29.645-10.24 43.136-17.792l44.237 44.237 77.567-77.568-44.237-44.238c7.552-13.49 13.49-27.955 17.792-43.136H512v-.025zm-256 54.862c-60.595 0-109.722-49.126-109.722-109.722S195.405 146.278 256 146.278 365.722 195.405 365.722 256 316.595 365.722 256 365.722z"></path></symbol><symbol id="icon-stack" viewbox="0 0 512 512"><path d="M398.06 199.93l90.995-56.072L255.592 0 22.13 143.858l90.995 56.07L22.13 256l90.995 56.07-90.996 56.072L255.59 512l233.463-143.858-90.996-56.07L489.054 256l-90.996-56.07zM255.59 46.983l157.214 96.874-157.214 96.874-157.214-96.874 157.214-96.874zM151.25 223.42l104.342 64.296 104.343-64.295 52.87 32.58-157.213 96.874L98.378 256l52.87-32.58zm261.556 144.722l-157.214 96.874-157.214-96.874 52.87-32.58 104.344 64.296 104.343-64.295 52.87 32.58z"></path></symbol><symbol id="icon-stats" viewbox="0 0 512 512"><path d="M0 32v448h128V32H0zm384 32v416h128V64H384zM192 256v224h128V256H192z"></path></symbol><symbol id="icon-user" viewbox="0 0 512 512"><path d="M375.686 363.48c-47.758-11.016-92.208-20.66-70.686-61.25 65.535-123.55 17.37-189.62-51.83-189.62-70.564 0-117.54 68.603-51.83 189.62 22.175 40.834-23.953 50.475-70.686 61.25-35.043 8.082-42.378 26.32-43.8 53.52-.516 9.847 166.317 65.963 166.317 65.963s166.8-59.002 166.412-67.895c-1.174-27.01-7.99-43.307-43.896-51.587z"></path><path d="M254.67 48.67c55.38 0 107.445 21.567 146.605 60.726C440.435 148.556 462 200.62 462 256c0 55.38-21.566 107.444-60.725 146.603-39.16 39.16-91.224 60.725-146.604 60.725-55.378 0-107.443-21.566-146.602-60.725S47.343 311.38 47.343 256c0-55.38 21.566-107.444 60.725-146.604 39.16-39.16 91.224-60.725 146.603-60.725m0-50C112.554-1.33-2.656 113.88-2.656 256s115.21 257.33 257.33 257.33C396.79 513.33 512 398.12 512 256S396.79-1.33 254.67-1.33z"></path></symbol><symbol id="icon-users" viewbox="0 0 512 512"><path d="M344.258 398.006c-56.757-13.092-109.58-24.554-84.004-72.79 77.884-146.83 20.644-225.35-61.596-225.35-83.86 0-139.687 81.53-61.596 225.35 26.353 48.527-28.467 59.984-84.004 72.79-41.646 9.603-50.363 31.28-52.054 63.602C.392 473.31 69.224 510 198.66 510s198.226-40.12 197.766-50.688c-1.396-32.1-9.496-51.466-52.168-61.306z"></path><path d="M260.233 118.703c4.175 23.005 13.582 49.225 29.452 78.452 22.59 41.595-24.4 51.415-72.004 62.392-35.696 8.232-43.167 26.81-44.617 54.516-.525 10.032 58.474 123.02 169.42 123.02 13.965 0 32.168.844 51.45 1.555-4.68-20.045-17.097-33.12-49.674-40.63-56.758-13.093-109.582-24.554-84.006-72.79 55.727-105.063 42.27-175.14-.02-206.515zM511.998 322.095c-1.197-27.513-23.348-57.66-59.924-66.095-48.65-11.222-78.72-17.5-56.796-58.845C462.036 71.3 412.974 3.995 342.482 3.995c-40.33 0-73.093 22.005-82.263 63.093 25.42 10.978 46.474 29.055 60.924 53.078 8.47 14.08 14.467 29.924 17.826 47.093 3.3 16.86 4.052 35.086 2.238 54.17-3.466 36.452-16.27 76.423-38.08 118.89 2.207.867 4.893 1.83 8.147 2.87 11.605 3.708 25.82 6.985 40.872 10.455l2.222.512c31.053 7.16 53.132 19.99 67.5 39.223 11.1 14.86 15.84 31.264 17.957 46.208C478.86 425.34 512 395.358 512 379.082c0-21.67.202-52.303-.002-56.987z"></path></symbol></svg>